<mxfile host="app.diagrams.net" agent="Mozilla/5.0 (Windows NT 10.0; Win64; x64) AppleWebKit/537.36 (KHTML, like Gecko) Chrome/138.0.0.0 Safari/537.36 OPR/122.0.0.0" version="28.2.7">
  <diagram id="Nhy2JWZsEgSxnDFi4sey" name="PÃ¡gina-1">
    <mxGraphModel dx="1781" dy="790" grid="1" gridSize="10" guides="1" tooltips="1" connect="1" arrows="1" fold="1" page="0" pageScale="1" pageWidth="827" pageHeight="1169" math="0" shadow="0">
      <root>
        <mxCell id="0" />
        <mxCell id="1" parent="0" />
        <mxCell id="ZO7T_bsklhYgzGEu-ApI-1" value="" style="shape=image;verticalLabelPosition=bottom;labelBackgroundColor=default;verticalAlign=top;aspect=fixed;imageAspect=0;image=data:image/png,iVBORw0KGgoAAAANSUhEUgAAA60AAAHyCAYAAAAA4ijUAAAAAXNSR0IArs4c6QAAIABJREFUeF7svQl8VNX5//9kJQkhIexBdgRZRWRXdhWriOKC+9LWqlVb7fK16s/a9ldbrf21/fqyy7df29pacRdFUUTrwqYgq8gOKjthh0ASyDr//+eMZ3JzM5O5SebOnHvnc1+vSDJz7jnPeZ8zj/czz3POSQkEAgHhRQIkQAIkQAIkQAIkQAIkQAIkQAIGEkihaDVwVGgSCZAACZAACZAACZAACbhAgPEqF6D6qMqUlBQje0PRauSw0CgSIAESIAESIAESIAESaDyBhkQp3jNVlDS+p7wjUQQSMYcoWhM12myXBEiABEiABEiABEiABJpJIFrkNNr7zWyet/uMQLgvNqKJ1GjvxwIRRWssKLIOEiABEiABEiABEiABEkgAAasotQvUaII12vsJ6A6bTBCBaMIz3Pv6tWj3xqJLFK2xoMg6SIAESIAESIAESIAESCBOBLTY1P9CNOB3u4DVr8Ms63vW1+NkMpvxGAGrENXzxf6atUt4z03xStHqsQlEc0mABEiABEiABEiABJKPQKSIql3AWsnUCtmgqLXuscMoa/LNoWg9ris69YZMwXXQ0SKtdmEbawFL0Rpt9Pg+CZAACZAACZAACZAACSSQgFWY2qOndjEbPMyyftRVBCKk9qRLitYEDqihTdcXrbUbdwXnnXwtYIP/6iucqI116jBFq6GThmaRAAmQAAmQAAmQAAkkNwGnYrWmpkaBskddrX/X/h5kaj/ZhCI2+eaaPRoa/MKjdm5YxWhtWURdtWhNkdTUoHi1i1R73c2NvFK0Jt/8ZI9JgARIgARIgARIgAQMJxAuHdgqQmtqoDCCKgO/BwJB4Rr8u66IrStodanaqKvhKGhe3AhoAarFazAt2LqjsBayQRFaV7SGE7kNrYNtTLcoWhtDi2VJgARIgARIgARIgARIwEUCkXYA1utTtVgN/o3oak29TZh0GS0Ywm3Y1NzIl4sIWLWRBILp5ampqSHragVsaijiqt8PH6WtFcON7SJFa2OJsTwJkAAJkAAJkAAJkAAJxJhAQ2IVTWnRin+1KLVGVK2/owzEQ1pamvrX+hPrtYYxxsDqEkzAOs+qq6vVvMO/mF/4sUZe7QI1JSUoXutGY4Mdsopd3cXGfHFC0ZrgicHmSYAESIAESIAESIAESCDaetSgWA1GVa0iVr+Gl9PT0yQjIyMkVq2bNuGexogEjggJ2CP0mGtVVVWhn6A4Ta2zORNe01+S6DkXab1rY+YjRSvnIwmQAAmQAAmQAAmQAAkkkEC4Y2usES+rYA2KVB15DUa+IFTT09OVWGAkNYEDmQRN16ap10hlZaUSsME1r5h7wYiqjrRaf2+ucKVoTYLJxS6SAAmQAAmQAAmQAAmYSSDShktWcaBTf3WKphYJiKxCrOo0YDN7SKv8SEB/kWKNvurIql2s2r9MsR+R4yTiStHqx1nEPpEACZAACZAACZAACRhPwC5Y6+4OHEwF1um/eodgaxqwXrdqfEdpoK8JYM0rfhB1xb9ahAbFajDympZWG4HV4rYxWQEUrb6eQuwcCZAACZAACZAACZCAqQTCn6MaFKq1a1X139hcKUVFVpEObI1emdo/2pU8BPQXLDplGF+yBNe2Bjdm0utcrYJW07FHXsNRo2hNnrnEnpIACZAACZAACZAACRhCQKf/anPs6cDWKKveDdi6dtWQbtAMEggR0F/CQLhWVFSoXa7totXJOleKVk4qEiABEiABEiABEiABEkgwgXA7BdtFa21acI1as9qiRQv1r5P1fwnuHpsnAamoqJTKSgjXGkVDp7LrHYcjHY0TaX4z0spJRQIkQAIkQAIkQAIkQAJxJGBPC64VrEgFDp6NqVOEIVSzsrKUYG3MVV1TI5VV1VKBI0qqa6QKZ20GAmrnYVxqp1esNUxNlfS0NMlMxw92IA6mc/IigeYSwBrX8vJytc5VR1hTU/XZwXXPc422vpWitbmjwftJgARIgARIgARIgARIwCGBcGnBQYEaFKz2CGtTBCtMOXDsuGzcVSRrd+yRL/YekN2Hj0pxSZmUV1YJdGtmRpq0bpkjhQX50rNjOxnY/TQZ2qurtM3LVSKWFwnEgkBd4QrBGlzfig2a7JszBb9MCf+lCUVrLEaDdZAACZAACZAACZAACZCAAwJW0RouJTgoXpESnCqZmZlq0yUnF+pCZHXZlm2ycP1W2bSrSIrLTkpWZoac1ra1dMzPk9a5OZKVkaEiuRVV1XLi5Ck5UHxcio4Uy5ETpZKVmS79u3aWCYP7ytBe3ZSA5UUCzSVQu8a1JhRx1anuELBWsUrR2lzavJ8ESIAESIAESIAESIAEmkgg0k7BOhUYKZT6dzzIQ6zix0mqbll5hazdvlveWbFWtu0/LNmZGdK7sIP079pJurQrkJZZWWrX4eyMdElLDab+IlUYKcOIvJaeKpcDx07Iuh17ZPOe/XKyvEK6ti+QsQP6yKgzekp+yxzHvS4qKpKTJ09Ku3btJC8vT92Hvp04cUK2bdsmZ5xxhmRnZ0ft1+HDh6WkpERyc3Olbdu2jtu3F4Qtx44dU8exdO3atc7bX331leLSrVu3JtfPG6MTUF+SVFQIxKveVEzvJhxuYyYtZK01M9IanTNLkAAJkAAJkAAJkAAJkECzCITbfEmvW9UpwUHhKmrTpYwMrC8NRqEiXVi3ijTg9z/bKJ9u3ianKivlrJ5dZUC3QmlT0EZqWuTKiUCmlFSLdMxKlSEFqXLwVEBaZ6ZITUCkKiBysiogX56oluyUasmsLJHi48WyaedeWb9zr1oPO6j7aTLpzDOkX5dCR/3/+OOPZd++fXLmmWdKz549lSiE+NywYYOsX79epkyZIh06dIgaQd61a5ccPHhQCdbu3bs7ajtcIaypRPtgi7p27Nghp512mmL86aefqmj20KFDm1w/b3RGAHMcohXjoYUqoq3Wo3Ds61qtX9hQtDrjzFIkQAIkQAIkQAIkQAIk0GQCOhVYi1e9jjUQCJ7Jqn/S0zOkRYvMqBsvQVBu23dIPvx8k6z6Yod0bJ0no/v1kq6du0h5Zq7sq0iVfSdr5FhFQHIzUmRCh3RJTxXZWVojg1unSdHJgJTXBJSY3VBcLTtKaqRDdop0zUmV7MoS2Vu0V1Z9sU12HTwiXdu3kfPPGiAj+vRQ/W8o+jt37lw5evSonH766dK3b19p3bq1HDhwQBYsWCDHjx+X8847T1q2bClHjhyR0tJSFXWFiG3Tpo2UlZUpUamFJpggOor39+zZI6dOnVIiuEePHpKTk6MED+pEPfn5+UqIbt68Wbp06aLagOjFPVgXjIgr7F6+fLkSwRDU69atU20h0gpBVVBQwKhrk2d49BursDFYRbmKemuxak0TtqYG29OEKVqj82UJEiABEiABEiABEiABEmgygWhRVoiz6mqs90tRwgvCrCFhiLWrW/ful/+s3iCrv9opA7udJpOHDpTctp3ki5KAbCqukaKTNVJRI9IhK0XOaZ8mA/PT5O29lVJVIzKlMEM+O1qtypzTPl0yUkXe2FUp+04FpFNWivTLS5PeuQGpOH5YVm7cokRxXk623DhptPTrWqh2GY60wTBEKwQl+gQxCNG5e/duWblyperTyJEjlSDfv3+/FBcXqwgo0oiHDBkia9euVWnEKAcBi/RoHRX98ssvVb14HYITwhR/I6q7d+9eJXrx88Ybb8iIESOU0EU6MkQrXoe4hbD94IMPVIrygAEDZOPGjSp1uFOnTkrUwpbJkydH5d/kiZDkN+JzAMGqv0CwpghbI67WL0ZC0deA/hQlOUR2nwRIgARIgARIgARIgATcIGCNrqL+YDow/q3dLRiCCamq+GkoLRgbNW3bf1De/HSNrPlqlwzu2VWmjxspJ9NyZcGBKvmqJChWcbVMFzmrIE0mdEyXz49Wy7t7q6RHbqpc2iVDVh6pkqWHqmVQ6zSZ1DFdtpdUy9y9VVJWFTwOp3duqgxrmybtpUw+27RF3li6WjoV5MttF46Tnp3aS4uM9LCoIFoRyYSQRDpuYWGhINUXfYZ4haDEOlWIF/wgsop1sIjAvvLKK/KNb3xDOnbsKFu2bFHRWPDAvRCf/fv3l+3bt6v1kQMHDlTrZiE6d+7cqaK7EMgLFy5U7UOo6lRUfAmA+5EG/PLLL8vFF1+sbEP0FzYMHz5cieFFixap9GWI6Gip2W7Mk2SoE58FjAUi23VFa3BnYR1hrZcqTNGaDNODfSQBEiABEiABEiABEkgEgchnstZNC0Y5iLloYuloSan8+4MlsmLrDhnWp7tcMX607K/Jkjd3VUpxpajjbHBhu6UB+akyrkO6eu3ZbRVKkPZpVSta5++vljaZKTKqXZoqN3NbpWwrqZZT1cF62mamyPC2aXJ2XpUs37hZ/uft+Wpn4WvHjZBuHdqqM17tF0Rr7969VWQTfYIYx+9nnXWWEoUQrRCaesMmRFYRUb3gggvk1VdflWuvvVaJRohTpBVD3GBNKiKziJRCwCKKCtEKYYr6IXyXLVumorJgCJEM0QMRi3sQ0dWi9aWXXpKpU6eqe7H+FpFt2IRU4qVLl6pIMMRwY8/FTcTc8mqbGDOkdGOWgrM++sa+KVOddGGKVq8ON+0mARIgARIgARIgARIwnUA40arPZNWiDv9CuEFARdst+Pn5n8rcFWvlrF5d5Yqxo+RYeit5aUdQkFqv/IwUmdgxXfrmpcq8vZWy9lgw/GoXrXitY1aKfLNXppRVi8zfXylfnKiRk9XB2lpliAwtSJdLClPk2Q8+lteWrJabzxsjF5w1QNrnt4ooWiEeITwhKJF+O2rUKHnnnXeUQFyxYoVa79qrVy+1BhWpv5MmTZI5c+bIuHHjlPjUqbuoB0IVkdAJEyaoyCiEbHCzquBxQFjvunjxYiVMr7zySpk/f74cOnRItYVILyKxWrS+8MILcskll6hIK0Vr4j49EK0YV8x3iNVwa1ut0VauaU3cWLFlEiABEiABEiABEiABnxOwila9S3Dtxks4kzWoDiHOognW9Tv3yB/f/FA6tG4ll40+SzoWdpG1xQG1NhXpxtara8tUOSMvTapqAvLJwapQynBhdqqKniKNeP2xYNtZacF1rANbp0p5tcjaY9Wyo7RGTlUHVKowBPDQgjRpm1ohj778thwsPiE3Tx4jYwf2kfS0tDrtQghiLSuilV988YWKkEKgtm/fXj755BMZPHiwirIiGqo35EHfzznnHLU+dc2aNSqtFxs0QVhi7SpEDV5HVBbiZtCgQSoFGGtacSGSi+NrEJmdOHGibN26VaUWY8MmbASFelEn1rIifRiR1379+oXWuSLtGOnF2JgJ9jE92P0PJaKt+CICl30XYZ1tUOcMV0Za3R8UtkACJEACJEACJEACJJCcBPSuwei9Fqs6wqp3EE5PTwsJsHCUgnWIPP7qO/JF0QG54pyzZeLgMyQ9I1NKqgJqcyX71SItRbLTcB6ryPHKWkWLTZdaZaSoFOAynHmjdgMWyUoVySkvk/KdO6WyY2epzM1T9+LC0a4t04P1rdi6Xf533kLp07mDTB89VM7o0qlO0xCQOgqKDXew/hTiElFRvIffESmFYEH/9Zm0EIoQsUgdxutYh4p7sPMvxDwEK+rC7xC5ELU6hRcCCJFUvI90YPyOumAHyqA91Il7YAMELHYX1u1YbcLrOuqXnDM2Pr3GnLbOAfu5rTpVODg/U4SR1viMC1shARIgARIgARIgARJIMgINpQZbBSw2G4LAinTheJutew7Ir156S87p31vGDx0ipZmtVbQ03NUnL1W6tUyV/acCsu7o13m+XxfsmB2Mmm4vrZFNx2ukfYsUOSs/RdpUnJADL7wgJ7dskdaTJknumHNlT3YbWXesWk5A9KaI5KSlyLltauSljxbL5t37VIrw1BFnSkZ63Whrkg0zu9tEAvrLBfXFiC1FuE6UlaK1iYR5GwmQAAmQAAmQAAmQAAlEIRBetNZuwIRzK7FjqjVqGK7K42Un5ZkPlsinm7+UOy+eJGltusjSoynyZQTReslp6XJaTqqsPlItyw7XFa3WNa0bi2tkWGuRoTVHJPD+O3Lwtdek8vBhaTlggBRcMk1Kzj5HVqe0kVVHquREFdKIRW7omSmlB3bJqwuXSmGb1nLt+JHSrX0bzgUSaDQBRMAR9cbV0NpW9T7TgxvNlzeQAAmQAAmQAAmQAAmQQFQCdtFau5Y1KFxxNitSUXNysiOuZ62uqZE9h4/J/f98Vfp3LZRrJp4jaytayfLD1WrjJPuFY26u75EhpVUiCw9Uye6yuotdtWjdWVojxyuqZWjVIUlb/KEceO45JVj14tiWQ4ZIm2mXysmR42RpRa4SwKXVotbDjm9TI69/tFB2Hz4mFw0fpCKuSMfF+lVsrIQ0XawZxXpUpPnigkDBuanYFAlRNJyT2jYjQ7WZ2qKFZHXvHpWnWwVwPM/69euVrTgvFinG+ixZbCSF9bH2C180YIOpzp07S6tW9TekcsvWSPViPS/W/eJCH7AeOIBU6H37JD0vTzILCyUlzG7P8bbT2h4+A0gh12ni9nNbuXtwIkeHbZMACZAACZAACZAACSQFgXCbMGH9pXVDpvT0DMnOzorIo6y8QlZ/uVMe+NcseWDGRdKle29ZdCRdNp8Inxp8eqtUQaQVUVSc24q1q9ZLi9bs1IBUHjggGUvmK8FasW9ffQE8ZIi0mzFDKoedIx+cyJLVR6tVtPWmXpmyccNaWfD5JunXtVCd3VpVWSmrV6+W3/72t2pTo29/+9tql96CggJVLzY/+vvf/y4ffPCBElTfveMOGRgISPGiRdKisFA63nyzpNg2dYrXJHn//ffl97//vYp4/+xnP1OCGinb2JEYx/BoMahTVjF+6BfOfcVRPRCJuDeR15IlS+SXv/ylMgF9GDZsmJxctkyOfvih5PTvL22nTpW0rzeuSqSd9rYhWvGFBwSqXkts30kY9zDSatKo0RYSIAESIAESIAESIAHfENCbMOl/7ZFWdFQfdROp0weOHZc5y9bICwuWyd/v/aZsrWolSw/VyIFy23bBX1cwoUO6nFmQKp8eqp8ajCID81Pl4s7pUlhRLEfeeUcOvPiiVBQVhW8+JUVy+vWTDt/8lqSOHCPP7U2V7SU1cslpGdKiZJ+8vWS5Oqv1R9OnSKvsFmoDpLvuukvtDHzeeefJFVdcoSKu6D8igT/5yU/U8TSTJ0+WKy+7TPLXrpVDb74pOWecId3/678krWVLZQc4QcjoI1GCZ3mmhaLRWvQrMfP1kSlW1njdupFPMKpdrX5QHhFV6/vRROvnn3+uNm7CDsh6AyGIcESUsVsxzpbFDsn6Swq98ZO9rXA2wia8bu2f7jv6Ye+7HijNSN+7fPnyeqL10MyZSrTmDRsmHa65Rlp07lzHRn0vWGjbNU87Y80QZXX0XNug16NGO2M43CTDnAEvilbfuD12hARIgARIgARIgARIwEsE7KIV6cA44kYLAjyoI6KnzxsN17ft+w/JP977WA4UH5df33y5zDucKZ8frQ6do2q/56pu6ZKXkSpLD1XJhuL60dhruqXL4JxKOTnrZTn46qthI6x16kxJkRZdu0pXiMqRY+RfX1ZIp6xU6Z9TIR8sWSpf7Tsot04ZJ4N7nKZue+yxxwRRP5y1es011yhRB1GCs1jvvPNOVebee+9VZ66mnTolJ/btk8yWLaVN796h3YBLSkpUeURsEcFEXfjRRwJhJ2FE6IKp1TmqjD5CBed/gilSdjVX7FK7e/duOXjwoHoPR/K0adMm9H400YrjdHB+7H333afsP3z4sDz55JPqvFmkB19++eVy8cUXK+EHwYmjfrALMjbXwvsQu7AV4441nNjBGH/DRtiEvqAM0pLRD6Qk43WIQJwz26FDh3obdaGfOAcXfUOaMr4oeOSRR5R9OtJaWlwsZdu3S1br1pLXo4fqr56TSOOGHR07dlQs0C7GCbs1YydnjAHqhkBFPyDScVQRxDuODsIFG/ElBMagqWnSEP74sQponSas04O5e7CXvB5tJQESIAESIAESIAES8BSBcKI1EAhG/fQ6PgiuhiJU2KX3idnvS9f2beTWiybKS3vT5IsTNRI+zipya+9MOVkdkCUHq2RbqeWomxSRyZ3SZUx+jZTPelGOvv2WnNq5U6Q6mD+ckp4ueaNHS6vhw+XIvHlStnlzaH0r3svs0kW6P/ywlPQ8Q9aWpAnSkBct+1SWbd4mV557tkwe0l/VM2/ePJk5c6YSbTfeeKNcffXVSvDMnz9fCT2cm/rzn/9cCZ/XZs2S2a+9Jn369pUf33efShtetWqVvPjii+rcVes5rkjBve2225TQe/nll1V9qAtiEYISAnfu3Lnqp0+fPnLDDTdIr169BBHI2bNnKyGpI60QrkifnTp1qkoFbqxoRT3oI/oKUXfZZZepVGgIwf/5n/9RolanvELQnXXWWaoMhB3699RTTymhiaN7IAQhTC+99FIlFpFCDcGuo48QmjhH9qKLLpJRo0apenGe7LPPPhs66xbcIDa3bNmi5pIWrX/+859l1bJlcvbw4XLZ5ZcrsY72/vKXvyi+WqTqLwTAECxvvvlmeeWVV1QqN3ijTtwHIYt2kBYNm3HuLs7AhQDHa+jjwIEDG/UZhQ1atOoob2oqIuupwaNu9A83YmoUVxYmARIgARIgARIgARIgAUcE6ovWYCqoFq142Ido1RHEcJWu3b5bHn35bZkydJBMGnG2vLo3RXZYxKj9nnv7tZC9ZTXyycEq2XMyKFqxOdPotmlybkFAKl59QYrfnSenduyQQGWlej81J0daDRsmhbfdJpkdOkjxkiVycNYsKVu3rrb69HSVxtvpzjvlVJ9BkpfXUt5dvloWrNsi4wb2kavOHabKQtz86le/kk2bNikhdv3116u04X//+99KHI4dO1a+853vqAgfXnvhhReUKPvFL36hRCgE19q1a1W6bY8ePVRa8caNG1U0b8aMGUq8QTC+++67al3pVVddJeeff77aLAnrT/EDIXr77bcrgTVnzhzVLjhDWCFKi3RfsIdtEJuIDDe0ptUeaUW0FAIca14RpZw+fbqcffbZ8q9//UsWLlyo+nb66aerSCY2noLwhI2IPKOtP/zhD6F0WHx5AVE7fvx4xQ5iEeUh0iFQIWAhFhGZvvvuu1X089FHH1V8Ib4RhcWcwiZYKIeoqBatv/nNb1R7Y8aMUSnMEMWvvfaavPXWW6pu8EX7sFMLUqzRRUT8mWeeUeXwOqLAiLDiyweIVAhZCG60De4YI/x94YUXqrFtzAU7wBN21K5lpWhtDEOWJQESIAESIAESIAESIIEmE8CDOC6Iivo7B1erKF000frZVzvl5zPfkFvOP1eGDRwgS4+myqEI61nR1ozuGbK3LCDri6vlWEVAstJSpFtOigzKqhB5+zU58tZbUr5rlwQqKpRtaXl5SrB2uOEGaTlokNoMqerIETm2cKEcfustKf16R9qguk1VZdvdcKO0OmuIzN+6Qxas3SJndOkkN00eo4ogcgZRBkE3ePBgJTQhHiG0kKL7/e9/XyZNmqT6bRWtEFqI6N1zzz1KgEE8nXPOOeo1REkhjiBG8TqijE5EK0TQokWLVLsQwcMRRT5yRBCBRFrrlVdeqSLB2GipIdEK0YwoJcQfxhIRSWw6BTshONFHRFGff/55lTKLaGXv3r1VNPO9995T9iNKivRiLVoh5PEahDRsg1BFFBa7GEPEQwQjBRhR4mXLlsmIESPkBz/4garz8ccfV0IPacloH+UQ9fzoo48U63CiFYIZAvHXv/61EsdYV4wvEFD+448/lgULFigb7KIV8xZlR44cqdr+5z//qdrG2ECIQ/Cij4gyQ3ij7cZc+AIHLHTmQVC4pqpIa3DKfR1xZaS1MVhZlgRIgARIgARIgARIgASiE4h+3E21EgnRdp3FzsEPPztb7pw6UUYOOEOOVqfX2xHYag12Bz5RFZAj5QGprBHJThNpfeq4BD4O7hJcvnu3BKqqgoIVEbOzz5YOM2ZIq1Gj1Gs66ltx8KAUL14sh998U0rXrq1tIi1N8seOlfZXXCH7O3aWlbsPSE0gIDdMGh0qA6GFHwgQRN8QecRaV4h07C6MKCREil20Ikr4wx/+UKW9IrW3Z8+eKvoKYYUUWEQfu3btqqKATkQr2kVEEqIR4wHWSN1F2ivEKyKkEHNIt21ItCIyi7FCtBH1QCTiQlot+odNpxD1hOiEwEX0Ff2DWEbUGNFJCOaHHnooJFpRDyKaEPCIgCICjPRetAWhhvoQ2UR6M8Qi7kf0GF8GIH0a0U8IfKQ5Q0RCdD7xxBN10oOtkVYIXKRsIzUbbUNcQggjgv3hhx+qOsHELlrBH1FaCFcI6ocffljVg1Rt9B2RWESYka597rnnqih7Yy5wgmiFoMZ8Ca5nZaS1MQxZlgRIgARIgARIgARIgASaRCC6aK2RjIxgpLWhC6L1ZzPfkNu+MU5GDuwv206mKVEa6RrRNk2OV4qUVQWkIEOk4MRhKV64QA689JKUYw3r19Ff3J99xhlKsLa99NKwZ3hWHDigdhje+9RTEigvDzWp1r+OGSP5Uy+R4z17y5HqgIzo2zP0PkTi3/72N9mwYYMSmohSzpo1S613hHCDqIPQsqcHQ5i+9NJLSvwhrRbiCCK6Xbt2KsoKcQjxhvvsohViFKm1SH/V6cFIH166dKn6OXTokBKC4A0RCJGI9GUnohX9gABG5FgLe6TDQlgPGjRIRVlRP9KQITIRfYTIhe2IvKIfdtGK+++//371Oi5Eb7GxE6KliODifghKnCGLv1Hu1ltvlXfeeUf96D7iX1yffvqpimZjfWi4SOu0adNUGi+ELC5Em7H2F+3gXqwTxjm6dtGKfoMRosfgANGLvv7oRz9SkVWkK//jH/9QXwRQtDbJVfAmEiABEiAfdEi7AAAgAElEQVQBEiABEiABEkgMgeiiNRhpRRSxoTWta7btkl8+P0euGjtMRpx5pry2N0V2lUUWrd87I1OKKwIqGnvaqSOSt3KxOtbm1Fdf1QOR3bevtLv0Uim44ALJaNu2zvuB6mqVRoxNmfa/+KLUlJTUeV9v3FRw+eWSM2y4ZOcGj6vBBUGKDYmQNgpxhqggoqfYmAmbHyFiqde56jWtEEMQlEjbRUQPQg3iCFFK/I7ySIVFpA8CC8INu+0ixXfKlClKkCHi95///EeJY0QlIfggllEnxB2EH6KjTz/9tNp5F+tZnYhWrCtFKi/WlOJCNBCCEpFjjB1Soj/77DMVTYZAxY7JSPFFOaQDI/3YLloh0H/84x+r9GBciPaCGdJszzzzTPU6osoQwkjfxf1YLwpxiCg21qPCHpRFlBLpwYhiI3IZTrQiqgxhjx2GMTdxpitSkMEcUVIwBUO7aMWGUWCEVGI3RSvShPWuwYy0JsZnsVUSIAESIAESIAESIIEkJBBuTaveiAkP6U7WtG7YuVcef3WejOjTXS6fMEZe3pMmX5XUP8pG4/1W70wpyExRP6lrVsj+f/9bji9ZEpF+Vq9e0uG666TNlClqQyaIsEBNjTq79fDbb8uhWbOk8vDhsPenZmer+zrfdVc90fvGG28ocYXjWyBGEC3FekpEXSHW7aIVEVhEGyF0UR7pqBC7EEqIqiL6ih1r//rXvyrBirpxYfdgRGCxThPvbd26VUVEIVpxD0QrIrvYdAnCEymwEHWwy2l6sH0jJjsMRFaxdvZ3v/udSnH94x//qKKvEKKwE4LWLlrBA9FKLVohbv/v//2/ij9eh0BHvdh0CqISacBIJ0ad6CcY3XHHHSrFFym6SA9+7rnnIq5pxdpdMMeGV0g7BjcIVHypAKGPnZBhe7xFq3VNq04P1mtauXtwEjpNdpkESIAESIAESIAESCC+BGJx5M0Xew/IX+bOl8y0NPnJVd+QV/ZlyKbiaomUIXxZl3Q5PS9N2mamSPr+vepom33PPiuB/1+wRLoycQ7qPfdIPjY+ysqS6pISOfDCC3Lo9del8uDB8LelpkpWjx7S7oorpMNVV6kjc6wX1mYieocoIdJy+/Xrp9Zc4oIYCSdaIaYQAURKLTb6Qeot1o9CfCLaiQgq3sff2IwJAhXRSKTpQvBC0EEEISUZohXrSSFa8eUBBCuEIAQgIp+oV6cHQxg3ZvdgOxC9ERI2SEL7ODIGQhmpwuCAFFotWpGqjI2q7KIVmy0hvRd1QYSj74g4r1y5UvFAn7CJFQQ/0ooRFYWIxyZOiGyjD+DX0O7BiA5D2EKkggm+QECUFtFhnBWLyHW8RSt3D46vT2JrJEACJEACJEACJEACJFCHQDjRWlMTPKNV75YKkYGIa6Rrz+Gj8sKCZbJw/RZ56nu3yNKSbFlxuFqKK8OnCJ/bPk2Gt02TQECkRUpAOh4LRkyL/vGP0Lmr9dpKTZWMNm2ky333Sf7o0WoDJqyBVRswoaIwV4tu3aTDtddKm4unqghtampKnVJYM4ooIYQrBBoie9/85jcjilZEAJEyi02WcNYqBJj1/FqI07vuukulw0Lw4qxTCFCIPAg5CK7u3bsrQQvBB9EK/hCtKIcoHsQz0mpxD0QfhOB1112nfm+OaEU7ENVYJ4qoKtqB7RDqiIJijS/ShZEOjKhtONGKNbxYj4sINeYD7MVGVFijihRppDVDDGMXX/QHqdCwG18AYLMk9B+RWXCPdOQNxD1SphGpBSekNeM+rFvF7xD+EK3f/e53Q0feuJ0eXFkZPPIG5xfXbsSEzZh4TivdKQmQAAmQAAmQAAmQAAm4TsAuWmtqcPRNULQiIgfBkZnZQjIzMyLacqykTOav3Sz//cZ/5Pffvloq8zrJ4iMpsrM0fIpw95YpclmXDNl7skaOVwZkeL5IwdF9cmTuXNk3c2bkiCt2rO3cWTrfcYe07N9fjn7wgRx64w2p2Lu3nm0tuneXjtdfL3kTJkha69ah8zWtBdFHCCT8QFQiKggBpC+9uy7eR4oqNgWCgEf6LgQc1pxCgEHAQfRCcCHlFmuAwRXRR5TRGyxB1OE9/I36EEXEvUgbhqDE69iY6YwzzlBRRQhXRB5RJ6J92IQIQgl24H78DlsgGBEpReQUNkS6ILzQlo54QgjCBowzxCDW8UJUQ4SiLQhbiFLsHIwLr8NG7HaMNbwQk2gPdmgOYIiUadiOOiCAITbxOtqDQMbf2J0Z96PfiKJC1Gp2KIN28KUA+o0zV7FrMdKywRQbNt10001qHTDswJigfvQfdiC6DVthG3hiHLFe2cq3MR+s8vIKVV9KSnCtsPWH6cGNIcmyJEACJEACJEACJEACJNAEAlq04lbrOa16XSteh6CDMIh0VVZVyxdFB+QH//uizBg3XMYNHSIfH8+SNUerJZxszUoVub5nhlTUiDqrtUNWqlzYXqR6/z45OGuWOnu1+tix8M2lpEgOdhS+7jpp0bWrWgt7eM4cqdi3L1QewrbTzTdL/vjxcjS9hVRUV0uXdgVhN5OCKIJow6Wjh7oizQBlIFT0brt4HwIQQhECDMIFYhQCE5E46/2IuELw4H69C7OuD+3hdfwNkYo6IRQhSGGTXm+so9y6LW0H2kU5/MBWbWOkcdJn8UIUwibYA7txwQbUF64tazQZNqHfsBe2os/aDtSD/us60AbEK+5BW5hDaAd2oA+677Af9+EH4hJp1bARghnp0rAR63GxwRPY3HLLLer8VT12aF/fj7bAydqG7p/eSAl2N+Y6efKUVFd/fQTT10feoE0tXvUmZSk8p7UxWFmWBEiABEiABEiABEiABJwRsO4grEWrFjdaDOnNmBoSQ4dPlMpjL8+VkxUVcufFk2VfZjtZcqhGDpaHT929sDBdeuSmymG8X35KRtQclqp9RZLerp0ceu01OfbRRw2uVc0dMkTaTpsmLbp0kRPLlsmhOXOk8sAByezYUTpcf720GjFCqktLpSwzSzK6dJE2ebnOgLBUQgng3FiIVghUpGIj8qvFLIQsNnv69re/rVKR43WVlZ1UAhnp5ZHSg2ELRWu8RoTtkAAJkAAJkAAJkAAJJBWBaMfe6HWtOqIWCc7J8gpZsG6LPDVvoVw/YZScfnof2VGZJdtKw4vWPq1SZWB+muTWlEvZli2S8tF7Klra/pprJDUzU468+64cW7BACdGwV2qq5A4dKu0uuUSQCnz8k0+k+JNPpGDyZGk9caKcWLlSTqxaJVndu0vBBVMku2ePpBpXr3YWEVyk93744YdqPSyiurgw/7BmGEfgYDdia/TXzb5i/sOm4OcgTbWblhZcy6pt0P9StLo5EqybBEiABEiABEiABEggaQlY04N1hFWnxeJBXYtapGg2tBkTyh4/eUp++u/XJTcrSy4752w57bQucrgyVSpr6gvX7NQUKcxOkfzKUjm+YIHs/uMfpbq4WPLGjFGpvylpaXLkvffk2Pz5UhXhOBv5Wri2v/JKlTJcsmaN2l34+NKlsv/55+XUtm2Se/bZ0vG66yR/7NjQGFtTb1WEzJLqmbQToRkdRxowrkhpt0h7xtVQirm1ecwlpBUjVRjrWnFhzSvWG2ONajwv9E3bXxtlhXhNUfMmlBqM35keHM+hYVskQAIkQAIkQAIkQALJRCDcula7cMUaRL3+sSE2ry9ZJa99vErGDeorU0ecKbmt8qToZEBKw5x/0zI9Rdpn1EiLrzbL/meeUZHSQHm55E+YoIQmdr45/M47cuyDD6T6xImwzaZkZkr+mDHqOJyM9u1VqvDuJ56Q8qIiySgoUCnE7aZPlxaWdFJsyIO1pugjRAf6hrWS2IiIV+MIgCF44sIGTOEubFqFC5s+ee3CPNFriYNR1rTQlxx1NmGiaPXa0NJeEiABEiABEiABEiABLxGwi1YdcdVrXPUGNhB1OrIUqX9l5RXy21nzZPv+Q3LJyCEybNBgWX40RT45VCXVtoBrXkaKjO+QJpPbp0jFtm2y+//9VkrXrZNAZaUUXHCBtL/6apUqjLNYcSQOXq9zQXC2bSsF558vHW++We0i/OX990vV0aOS2qKFiti2u/RSte7Ves2bN08dvaI3XsIutr1795YuXbqENmWypn9ad1jWGy3hfWskWm+EpPno9+z1wA69wZL1yBRtn45sW+/X4kiPC8pqO+yRctSpX9P1N1TGbp+2LVz92g67bdgBGO+BoZWJrgPn4OIa+3W0W/fDmuKrv0Cw9tFuvy5j3ezKzc8Z2gtuJBXc5AppwdbNl7R9sEGxYaTVzeFg3SRAAiRAAiRAAiRAAslMINy6VvtmTPg7Ozu4Oy6O/oh0odyGXUXy9HuLpeRUuVw2eqgMHTBA3ttXpc5utV/981JlUqd06daiWmRfkez+9a+kdMMGkepqFXFF6m96QYEcfOklOTR7dp3b8TpEabvLL5fy3btlx+OPS8Xu3TiXRDp961vSdupUFWFNSU2tcx/OWMVZqBCpiB5r4YY0UJxXinWUHTp0UOmoEGHYAAiv4ViYgQMHqjRX3INNg5A+qqNxWHOpj1iBkEN5HBejj3LB0S7Y0AdH1OB+2IC0V7t4g7E4Kubw4cNq113YiTWdOO4Fx7xAbOPYG3yJoNd9ajtgAwQ5Xsd9iH7iGBi0jb7gXxw3g7RbREjxPvqJOnF8DtrF7zi/FW3iuB+s6cSFv3GsDI6yQT3YKAltoD1cEP+wD23Dbm3jJ598Uke04ksQsEPb4A/7EM3UuwuDHZgiMotjcsAe5WEH/sbmTG5fmMcVFZVSWRlMfa495qZuajDTg90eCdZPAiRAAiRAAiRAAiRAAiKhdavWKJ+OmOn1n3ojmpyc7Kib4JRXVsriDV/I28s/l4rKapk66iwZfEY/WXa4Sj4+WK2OutFXy3SRswrS5MLO6XK0tFLa7d8h+//yJyn57DOVHpw3erS0u+wyFVHd/+yzcvT99yVQVSVp+fnS/vLLVUS2fO9e2ff001K2dSs6I4W33iptLrxQnemamlH/fFmIVpz9CYGJdZgQf0gRXr9+vRKTEGY4XxWiEqIKayshnCD2IMR0iigithBSEKUQXRBvF1xwgSxbtkyJWYg4LTwhJnFGKlJlUQdeh6DFWaI441VfELUrVqxQQhmCVtuD+jZv3qwEG9rE+aTnnHOOOr8UdUEAYqx27NihNiyCaIQohciGeIYY1+IU56yiDFKiIV7xOwTpxo0bVRnYgPrPPfdcWbJkiRKQiKKiDAQ3oo8op5lA6MLOvn37Km74HQIbXHHmLLji0pFWsMJGS4MGDVJfDoAv2EEYok70FYIY9+MHfcT8Q/sQuLAX9rh16c8B+qkj6PbzWdE217S6NQKslwRIgARIgARIgARIgATCELCnpeqUUogFLVyD0dZsJfCiXcdKy+STjV/Ih2s2SVl5pXxj+GAZ2r+fbD+ZIisO18ieshoprxFB0LZTdoqMbZ8uZxakyfbiCin8cq0cf3GmlKxaJSkZGZI3cqSKpqa1aiUHZs5UKcQFF16ozmGtKCpSR+QokZuaKh1mzFBlIwlW2A3RimgiRCP6AnGJv5cuXSrnnXeeivhBKEG84YKI0gJMr3uFYJkzZ44SlhCGiC5CDOL80NmzZ8vo0aOVkESkEqIR7YAj6ho8eLAShbgH4g8iGJFE1N2/f395/fXXZeTIkUrQgbkWqRB2Q4cOVXbhSBjsogshC3tRJyKliGpedNFFSox/9NFHMmDAgFDkddSoUWpToddee02mTZum+r1y5UrFAeO6evVqdTYq6kf/L7vsMiXAIe7PPPNMJYLXrFkjY8aMUbZCfEL4Ll++XHHCmaoQ5egvIrHoL2xE5NQqWsHgnXfeUeULCwtV5BbiGYwgSsEFdkCcasGN+yFaIebxhcPEiROjTcEmvw/m6BtY1W7Spdeyhtk1+OvUA6YHNxk5byQBEiABEiABEiABEiCB6ATsKcI6Pdi6IRMELMQdRJKTdYWHjp+QFVt3yPy1m+VY6UkZ06+XDDujj1Rl5cuuUymyvaRGik4GxWv3lqky9bR0xK8kpbJCsj9fLmVzZsvxFStUtBQR1/ZXXaU6cmrnTsk+/XQ5tWuXHJk7V0pWrhRsyITjbjreeKNaw5qSjrrCXxCtEJQQhegLoqkQhPPnz5frr79e9Q1iUKfzos8ob4/uoR6cFzpkyBAVLfzss89k/Pjx8sorr8gll1yi6odoRcosBByEJNqCMIUww9EuEK0QjxBnsAXpr88995y6H78jwodIKiKYEJMQs7jQxvDhw1UdiAxDHKKthQsXyrXXXqvKQDwjzRdCEP2DIMe/OAf1pptuUmJ1wYIFIQZr165VohgX+g6hunjx4lAfIS4hYqdPn676olNjUQa2IRKNiK5O6UW/ca4q7rOLVkSpUT9EKyK1EK2IroIBork60o/+wxZwQz/xOn5HBNetq+4xN+HXsdqjrLCFotWtEWG9JEACJEACJEACJEACJGBLEbZuPGRd26o36YFgsYqWhgAi4rp22275z2cbZOfBIzKwW2cZ0qurtG/XQapatJLDVWly8FRAKmtEerdKlWFt0uRYRUBaS4VUrVwmh954Q+0IjCNw8seNk47XXy8ZHTqoyOqhN99UgjU1J0fyzz1XOlx7rTr6JtoFsQmBpdNoUR7prIhSIiUY0UOk2ULUQcAiMogUXrtoRbQQohXiC6IVUcgJEyYo8QvBigglBCcEK35HxBQRTQhJLVqxJhQpwvpCW++9954SyRBpEEdgDVGHaCxSiyEQ161bpyKeSOmF6IVoRfoxROs111xTT7RCuE6ePFmJ1pkzZ8qNN96o+ofyiGAiegnRiv6jPYw70n3RF91H1I8+6r4hGgnRiddgNwQ4hDsiqLAXfYSwtotW3Ie0Y3wZgD5CbKOfaAeCFBFjcIOQxzghwov3MQb6HrTrxhVcyxo85qZ206XaTZjqrGHVEVZGWt0YCtZJAiRAAiRAAiRAAiRAAvUJ2HeZtaYI6zRhvcYPwgYCItpuwmilvLJKvtp3UOatXCfrd+yVzIx06d+1UPp16SQdCvIlrUW2nErJlEBahgwqyJTMtBTB1kmBinI5vvRTOfjKy3Ji9Wpsu6uOsGmJVNh586R0zRpJzcoKne3acsAAR8OKaCEEEoShPlsUaykRzYRYhWiFwIRAxPsQfBCGdqGEtFhEByE6IXqRBgvBBhGGuiB6IFgh8rDuFUIMkUQIVYg6RCIhxKz16k2KEH3Uu9NCXMMOpOziNb1eFhFbtAnRCYGJ+iE8deosRDjuRd/QH9iG35FajKgr7kN5CGmkOSNqi3Wc+BsXym/YsCHUR70hEtqEyIV4RvoxxKkW5li/qgU6BD/eRyo0LqRR49J9RFQWZSBiwRcsYSfEKuYbWEG04gsBCFn9ZQl4uXF8DuY2+gTBWncta/3Nl6ziVU86RlodffxYiARIgARIgARIgARIgASaTiBcijBqCx59E5Cammr1bzDVNUOJCOuxHw21rNYJVlXLp1u2yQdrNioRi7o6ts6T3oXtpUeHtur3PLXRE1a6Bo+USa2slLTNG+XUyy9K2YYNwU2YWreWmtJSdRxO/tix0n7GDMkdMsRxxyGMsH5Sb6ikb0R7EG3YeAjCFaJJi3WUhUi3XiiH11EXxA7EJIQgLgg8/KAO/RrKgBfq0esmw9WL+1E3bEHdWD+qxSoENO7RUWCUw3sYCy249Lpb9FO3pdNq8S/sgk24z3q/3kwK4wsRi7Yh4HQf9VzAPbADjBAZ1Wt/UQ5ton4IV7wOu1AfLrCwXhDu4IB29PFDsA/RYPyLKCzq1DajXdSBvsf60mnwGEM9TjrSqlPh9S7P4VKDYQ9Fa6xHhfWRAAmQAAmQAAmQAAmQQAQCOg1Yi5RgirAWrRCwNUpsQJDo418aA7Oqulo279kvyzZvk1Vf7lBpwyfLK1SdaampkpGepnYOrqyqko6t8+WiM/vKxW1yZNfjj8up7dvVcThYs6rPcs0dPLgxzbMsCdQjgDkNwYof607BKSlY01q7+ZIWrOEyDChaObFIgARIgARIgARIgARIIE4ErDsJo0l7mnAw8ho8twZRssYKVyWCkYpZXSMQsMfLTsnuw0dl35FjUlx2UsrKcTZmirTISJeC3Bzp1r6N9GqbL2l79si2n/5UyvfskTZTpqgIa8uBA9V6V14k0FQCmI+IKEOw1u4WXLsBE+rVGQXh0oJ1uxStTR0B3kcCJEACJEACJEACJEACjSRgTRNuSLQGy2GjoKBwbcqlBWxFVbVKy6xGRDcAQZyCYGso8pqZliYplZVSsmaNOvKm1YgRktO3r1rTyosEmkpAR1gx96zrWCFOdVqwjq7q9GC0xUhrU4nzPhIgARIgARIgARIgARKIEQH7pkxavOooq/4X5fAAjzWJWN/o5qUE7qlTUl1cLGn5+ZL29YZBbrbJuv1LQEdYsZZXC1G9zrl252B8eYI11rVCNdLmY4y0+neusGckQAIkQAIkQAIkQAKGErBvzAQza0VrQAKB2jRhvaGOPgrHya7ChnabZiUBAWwOBbGKn7o7BQfTgq1rVyNtvGTHRNGaBBOHXSQBEiABEiABEiABEjCLgBatsEpHXoObMmEjpqCA1cJVl7XuBEvhatZ40prgnIVgRTowBKs19dceXbUKV51R0NCcpmjlDCMBEiABEiABEiABEiCBBBCwCle9a7COuFo3aKoVswGVKqyPlLGuA0yA+WySBBQBPVe1WLUfa6M3YAoXYXUiWNEGRSsnGwmQAAmQAAmQAAmQAAkkiEAk4RpJtKrzVb8+j1Sfv8moa4IGj82GUtr1GaxAolOA7f/aRavG52T+UrRyspEACZAACZAACZAACZBAAgmEW99qTRm2Rlqtv+tNmrDWVQuEBHaDTScRAcxDayqwjpha16zaf1cRU4cbL9lRUrQm0eRiV0mABEiABEiABEiABMwjYI22wjr77sJWoarPcA1u2oRjcfATPNNVpw07iVyZR4EWeYEA5qI1DTgoRPXmSkFRGhSr2HQpuDuwVaja56bTuUrR6oXZQRtJgARIgARIgARIgAR8TcCJcLWnDAOI3rhJi1ctFnC8iP5xKgx8DZidaxIBHVFFVBU/eodrqxDVa6sjrV0NCtta8aoNacy8pGht0vDxJhIgARIgARIgARIgARKIPQH7rsJowR551Zs2BV/H+9hpGL8Ho65aJNT+jshX7VrD2FvNGv1CwJqqrqP69rllFaH6SxL9mjUl2DoPrQK1MWI1NIcD9q91/EKc/SABEiABEiABEiABEiABDxKIJFytAtYuVu0bOumywX8R6aovZj2Ihia7TKB+xD84d8Kl+FojrMEU4dqIaqQ04KYIViV+KVpdHnlWTwIkQAIkQAIkQAIkQAKNJBAuXdgqRGujYMFIa7j3dJMNieCmiohGdofFDSag50e4aChe05ssKfFoWb9a+3fd9F/7Zku6682ZaxStBk8gmkYCJEACJEACJEACJJDcBKzpmlqYaiGh/460+7BVtGrhEUkMJzfl5O59JDGp16HquVMrRlPVBmDWI2yCAtYucIPh/eaI1ZDgZaQ1uScpe08CJEACJEACJEACJGA+gYbEq/29oJhV/62z1tUqdu095opB8+dArC0MJyatc6RuxBQbKdVaYE8XrhuNjZ1YpWiN9aizPhIgARIgARIgARIgARJwmUB4gVq7AZM9FdgelQ1vXjBCxiu5CASFZ/1xt6cJWwUpCNkjsCFhGWaH4FgRZXpwrEiyHhIgARIgARIgARIgARKIAwEnKb5OysTBVDbhYQKRNlOyilR792KRChwOGUWrhycSTScBEiABEiABEiABEkheAg1FRyO9x4hq8s4XJz2PJjobWv/qpP6mlqFobSo53kcCJEACJEACJEACJEAChhBwKkadljOkWzQjzgSiiVarOY0p29xuULQ2lyDvJwESIAESIAESIAESIAFDCVCkGjowHjIrnuI0EhaKVg9NGJpKAiRAAiRAAiRAAiRAAiRAAslGgKI12Uac/SUBEiABEiABEiABEiABEiABDxGgaPXQYNFUEiABEiABEiABEiABEiABEkg2AhStyTbi7C8JkAAJkAAJkAAJkAAJkAAJeIgARauHBoumkgAJkAAJkAAJkAAJkAAJkECyEaBoTbYRZ39JgARIgARIgARIgARIgARIwEMEKFo9NFg0lQRIgARIgARIgARIgARIgASSjQBFa7KNOPtLAiRAAiRAAiRAAiRAAiRAAh4iQNHqocGiqSRAAiRAAiRAAiRAAiRAAiSQbAQoWpNtxNlfEiABEiABEiABEiABEiABEvAQAYpWDw0WTSUBEiABEiABEiABEiABEiCBZCNA0ZpsI87+kgAJkAAJkAAJkAAJkAAJkICHCFC0emiwaCoJkAAJkAAJkAAJkAAJkAAJJBsBitZkG3H2lwRIgARIgARIgARIgARIgAQ8RICi1UODRVNJgARIgARIgARIgARIgARIINkIULQm24izvyRAAiRAAiRAAiRAAiRAAiTgIQIUrR4aLJpKAiRAAiRAAiRAAiRAAiRAAslGgKI12Uac/SUBEiABEiABEiABEiABEiABDxGgaPXQYNFUEiABEiABEiABEiABEiABEkg2AhStHh3xVvmtpeR4sUetp9kmEUhLS5OqqiqTTKItHiJAX+ShwTLcVPoiwwfIA+bRH3lgkDxiIv2ReQNF0WremES1KCUlRf7P6tKo5ViABKIReHRoS1UkEAhEK8r3SaAeAfoiTopYEaAvihXJ5K2H/ih5xz7WPac/ijXR2NRH0RobjnGrhU45bqh93xCcMr78wL8Urb4f7ph3kL4o5kiTtkL6oqQd+ph1nP4oZiiTviL6I3OnAEWruWPDqIaHxsZrpmqnDLspWr02eom3lw+IiR8Dv1hAX+SXkUxcP+iPEsfeby3TH5k9ogqf3pQAACAASURBVBStZo9PyDo6ZY8MlAfMtDplilYPDJhhJtIXGTYgHjaHvsjDg2eI6fRHhgyED8ygPzJ/EClazR8joVP2wCB5xES7U6Zo9cjAGWImfZEhA+EDM+iLfDCICe4C/VGCB8BHzdMfeWMwKVoNHyc6ZcMHyEPmhXPKFK0eGsAEm0pflOAB8FHz9EU+GswEdYX+KEHgfdgs/ZF3BpWi1eCxolM2eHA8Zlokp0zR6rGBTJC59EUJAu/DZumLfDioce4S/VGcgfu4Ofojbw0uRauh40WnbOjAeNCshpwyRasHBzTOJtMXxRm4j5ujL/Lx4Mapa/RHcQKdBM3QH3lvkClaDRwzOmUDB8WjJkVzyhStHh3YOJlNXxQn0EnQDH1REgyyy12kP3IZcBJVT3/kzcGmaDVs3OCUeZFArAjgHNZoF4+8iUYoOd+nL0rOcXer1/RFbpFNjnrpj5JjnOPVS/qjeJGObTsUrbHl2eza+E1isxGygq8JOPkmkZFWTpdIBOiLODdiRYC+KFYkk7ce+qPkHftY95z+KNZE41cfRWv8WDtqiY7ZESYWckCAjtkBJBaJSIC+iJMjVgToi2JFMnnroT9K3rGPdc/pj2JNNH71UbTGj7WjluiYHWFiIQcE6JgdQGIRilbOAdcJ0Be5jtj3DfDZyPdDHLcO0h/FDXXMG6JojTnS5lWYDI65aMNqmXnrFKk8VaZg5RV2lW8+M19y23eSrQvmyis/mCEznnhFuo8YLy/fc5Uqc/WTr0pmTm6T4b77+I/lzGk3SuGAoU2uw2s30jF7bcTMstcrvmjJP/8gi596TG78x3vq8639C2jaXxt7+4My5ls/Cgta39dQGfuNaPujJx9WL2dk5YTaM2skE28NfVHix8DrFnjFHzXEWfuLbsPGhZ5prM88fSZcLCUH98m/bpkox4t2qecg62vdh42TaY/8TTXh1PfMefg2WfvW8/XMmnTPIyFf2NAzGW601mF9XvPqnKI/8urIiVC0GjZ2fnDMDSHVDtrqMOEQN70/Wz3wlRwsColWOOtYXPaH2ljU6YU66Ji9MErm2ugVX2R/6NN/g6z2M/Yy4ag3VrTq8tN/84wUDjhbPWi27tyj2V+wmTsjmm4ZfVHT2fHOIAGv+KNI41VRVqK+hN+5clGdL7jsfscqIAdfcr0SqZHKOPE9eL7asXJRKDBgt68xz2Q6kJBf2DUknr04P+mPvDhqX/uBQCAQ8K75/rPc6465oRHRThtlIkVOG4q04j7t9K0PpNZ6s1rly5b5b4Wit0UbVikRrC/9zaX/Zk79HtExJ8Mou9dHr/gi/UDX7/zp6kHKGhXQD33WBzcQ05EM/K59gq6n5+jJsm3phyoTxBoRifSwp9uwv2+NhFjr0bZA4OIBtvuICXJ091ehh0r7l2xO6zHZt9EXufc5TZaaveKPIo2H3b/ojA4dWdVfeK186alQ9ob2G3jNmk2in5Mi+R6rDQ2JVifPZPb+RBPBXpiP9EdeGKXwNjLSatjYed0xN4TTSSSjIdH67mM/DH1jqMWoNY24aP1KFa3FhfRj/T8FRlobnuQ88sYwJ2CIOV7xRdYHr4t/9id5/ruXCNLocCHCcP1f35K5v/ye+huRidkP3KJ+xxdn1odB7TcKBw5T7+1YvlB94WXNCrEOjTWiaxe3Vj+mo7A6tU+Lai0yURY2wXe17dGnzpIIbQPKRqvHkGkT1gw+JJo8Ot6wzSv+KBJN/Rxy9R9nyaK/PhryQVj2pIWg1Vd1HTpGls38k/ILK174S51oaUO+pzEi08kzmbU+XV77yOYs2UrkrKM/SiT95rVN0do8fjG/2+uO2S3RevHP/izPf3eqehhFNEV/Ozlsxu0y7Jrb1YPesb3bVbQCFyIpuixFK0VrzD+oSVChl3yRfui78P4/KAEIcXroq00qOoHf3338R8ofDL/urjpfaFlTfHPbF9Z5z0kUwr5eTAtRezQCfxcX7VJi2PrlG9bxW31Zj1GT6tjQmHpMnpJ8SDR5dLxhm5f8kZ2o3ZfYI6f6GUX7KjzXtOvVT31pdtmjT8vqWf+sI3LxRyTfE0602te06vX3+os6J+v4rWttI32R542ZJEJ/5JWRqm8nRathY+dlxxwNpZNv9SJFWsff9bC8dPf00OZNui2kx1z44H/XiU5UlJZQtAodc7T5yPcbJuAlX6Qf+nRqrzXjQr+GB0Jc1uUCmgAewuyC0Yloxf3WqAc2Kbn+r2/L3F/erVJ/rZfewAQbN9nXmGlRa42u6KhrY+oxdU7zIdHUkfGOXV7yR3aqkdakarFoTfeFwLRmViBtGF/IQ8jaN5Gz+x69oaW1/YbSeZ08k6Eu63rchpZMeGU20R95ZaQoWo0fKS875mhwnTwERhKt9kirtS17vRStQTp0zNFmJN9viICXfJF18xL9UKX9AHbhdBJZsD/AOfFX9odDvaGcPZ0v2kOkThHObt1GWp/WM7Tmv6EHTi+tLaMvoq9pLgEv+SN7XyPt4Ku/yEJ5vc5ev5bZMrfOHh4NrVm3bmZpPyEhFmtatf1+2DmYz0bN/SQm9n5GWhPLv17rXnbMTlA2Zac61GtPqwu3plWXo2ilaHUyF1mmYQJe8kXW1DXr5iT2hy39IKh9Rbg1rdkFbdUyA+1jIqXC2R8UrQ+HVv8Ubi2qPdIaKfUu2trYhnYFNWl+U7SaNBretMVL/shK2L7Rkl4HqjdYs+7LgawKayRTl7Efp9WQ78GSg2hfklnfd/pM5qcjveiPvOkDYDVFq2Fj51XH3BiM9jPBrM6wubsHQ9zaRau1Pa+vxWgMZzrmxtBiWTsBL/kia/qaNSIRbpdNq0BEnxvaPbih3TmtbaIe+0NdtF1/7al8kaIlja3HxJlMX2TiqHjLJi/5o2iiEO9H2vU83Pmp9o2Povkeu2gNd06r1bc19EwWLkrs9Ygr/ZG3PvtWaylaDRs7rzpmwzDSHKYHcw40kwB9UTMB8vYQAT4kcjI0lwD9UXMJ8n5NgP7Iu3OBotWwsaNjNmxAPGwOHbOHB88A0+mLDBgEn5hAX+STgUxgN+iPEgjfZ03TH3l3QClaDRs7OmbDBsTD5tAxe3jwDDCdvsiAQfCJCfRFPhnIBHaD/iiB8H3WNP2RdweUotWwsaNjNmxAPGwOHbOHB88A0+mLDBgEn5hAX+STgUxgN+iPEgjfZ03TH3l3QClaDRs7OmbDBsTD5tAxe3jwDDCdvsiAQfCJCfRFPhnIBHaD/iiB8H3WNP2RdweUotWwsUu0Y8ZOlV9+/J46YgbHQXz05MP1CHlpB17sHrrp/ddl2iN/U/3Qu+Th9xv/8Z7YzzRrynTQu5FeeP8fpM+Ei5tShSv30DG7gjVpKk20L3ILNHzArB9fK1f+/kXVxMxbp4h1d077ea0N2WHd7bypn31T/Ucs+dMXxZJmctblV3+UnKOZ2F7THyWWf3Nap2htDj0X7k2kY9YPT8Nm3C5jvvUjgYBd/NRjdcRduNdcwBCzKmEvLvQHl/X4iFiKb2wLX1y0S4l9fQ5bzDrRxIromJsIjrcpAon0RW4OgfWzenj7ViVaK0+V1Tv6ZuztD4b8hpv2oG4T/Ucs+0xfFEuayVmXX/1Rco5mYntNf5RY/s1pnaK1OfRcuDeRjtkuSMMJ1HDnqJ46cUyROLrzSyVwcekHQfyuz0G01te2Rx95+Z6rpGj9SnWP/hvlL/7Zn+X5706V40W7VF1WcRnpjEXreYw4kwxnkF344H/Lmw/dKufe9oCKqOqzzbS9Wa1a1xGZeHDcsXKRtO7cQ3DIt9V2e/14z3rOWSwiLrGeTn53zEVFRTJ69GiZOHGiPPPMM2HxlZSUyCWXXKLee+utt+TEiRPqnp07d0bFfdVVV8myZcsclb355puVDStXrpTx48dLWVlZnfo7d+4s1157rfzXf/2XFBYWRm3bhAKJ9EVu9d8eRbWeT6jPHjxxsEj5Ly1arT6nQ9/ByjTtO3YsXyiv/GCG8nHdR4xXPi34fr5smf+W6DozW+aq947t3S44n7Vowyp1n/ZtJvqPWI6Bm75If+Z+9rOfyf333x/WbLuvmDNnjlx66aWOuvjTn/5UfvWrXzkq++abb8q0adPk8ccflwceeKDOPampqTJw4EDlA2bMmCHZ2dlh61y3bp2MGzdOHnnkEfne977XoE+ZPn26PPjgg9KlS5c6dd1yyy3y73//O2z9OTk5snDhQhk2bJh6/+TJk/L3v/9dfv/738uOHTvUay1btpSxY8fK7bffrvrzhz/8oV5/wlVur9sRNIeF/OiPHHadxWJMwE1/FGNTWZ2NAEWrYVMikY7Z/m1/ONGKMpven11HaGrhCWFofyi01gHU+mEQgu9ft0xUwhQPfIUDzlZ/I8p76KuNSjzi4Q4CVEd7rcJWpy/r90oOFqmHQKuQxMPm7Ae/KdMf+5fktu9UxzbYYo8i60O0rQ+g9odMXb+O2GpBbo9SmzCt/O6YmyJa09LSZP78+VJaWhoaotdff11efvll9WDau3fv0Ovt27dX4tNJ2a5du8qoUaNCD5h4mLz88stVXQcOHFD1L1iwQPr06SP/+c9/pHv37iZMkQZtSKQvcgsOxOHsB24JZY9of1XQrZcc2LJOicgeoybVEa1Wn6d9mE4nDidatT+0+jtkeui2cC/8Cr4c05kZJvqPWI6Bm76oKaJ1z549smTJklAXT506FRKmEKlZWVmh93r06CHbt293VHbMmDFy2mmnKdGqxa72KatXr5aXXnpJvvzyS7ntttvkz3/+s2RkZNTD/Itf/EKJyEWLFknPnj2j+pR27drJ+++/L0OGDAnVBdEKAf3b3/5WCgoK6rSBNiGK27RpI/hS7+qrr5Z33nlHiVQI1LZt28onn3wi8+bNk7POOktmzZol27Ztk/Xr14fqOXr0qPzkJz+RwYMHyz333BN63Vp3LOcP6vKjP4o1I9bnjICb/siZBSzVVAIUrU0l59J9iXLMOgqJbukHKWsqrbW7OjoQ6R6rGNQPY92HjVORT0Qb8gu7yvDr7gpFYyEE+51/eehhcsULf1FiVUcpIDhxRYqSTP9NMMqmIx56bRkeUD999sk6/dG22R8o8beOtEIso01r9MNev7VfWC9r/9ul6dGoav3umJsiWnNzc+sxxAPmL3/5yzrRh0igo5Vt6AEaD394QLz77rvlySefbNRYJqJwonyRm321fxGnfcrIG78nu1YvUWISa9MhbBFp1V+uaYEJ23Q0FX4ynGjVX3ShLL6Ig+/Ta+r1F2N4T3/hhd9N9B+xHAc3fVFTRKu9b/aMjHB+Qt/jpGwkP1FZWak+/xCl7733npx//vl1TDl06JBMmDBBzjzzTHn22WclPT09JFrDRZIhLKdOnVrPp0C04su5pUuXNpjZAbF68cUXy6OPPqoiqfjM6ysQCAjszczMrDcVnPjeWM4f1OVHfxRrRqzPGQE3/ZEzC1iqqQQoWptKzqX7EuWY9UOT9dv/htKDdfqt9QEOazntws/+MKbf7zNhqmxd8Lbg34Nb16t0un2b16joqk7PwzozXFq86pQ6O3qI6Ha9+tUTrdb1rHaBbX/4DGd7U0SrlZ9LU8RxtX53zE4enJrzgBkOdHNEK6ITU6ZMUal3SFVu6MHY8SC7WDBRvsjFLin/pDNF7JkhOsKa3bqNnDx2pI5o1cLT7kcipQdD0FaUltQTrdZoq3X9ezj/6yaHeNftpi/ykmgF98WLF8ukSZNUZNeezgwRirRlREm/8Y1vqGFqqH+RfIpT0Qp/BjEMgYsosdPLie91WpfTcn70R077znKxJeCmP4qtpazNToCi1bA5kSjH7CRqClThIqd43RqdjRRpRbRBp+fhwbD78PEqwooIKS5rai/+1jZhfSne09HZcBukhFsThgdU1I/Iq34/3HDriAcjrYZ9GKKY4+TBySTRqqMoWNP6xhtvKPFq8pUoX+Qmk0iRVu1TrJFQfBnWlEir9od20Wr1ZygTbq2+NSrrJod41+3mQ6LXRCtSefHl1e9+9zv50Y+CGwTiqqqqkptuukk+//xztZQAab+4GupfJJ/iVLTqSOsf//hHtX7W6eXE9zqty2k5P/ojp31nudgScNMfxdZS1mYnQNFq2JxIpGO2i7aGIq144Bp2ze11UuUQrWxoTSsiG9ZNTawPhXptq3UzEwhhvbsnHirt7eFIHvuaVusa0xe/N12m/vx/1CZM9ggLhl3b2u/86Sp9Tz+wWvtmX9Pabdi4OscBcU1r4j5A+sEJ60Ot66qsFum1ap06dYoY3YwWPbXWF61spAdMpNq9+OKLcsMNN6jIBtatmX4l0he5xcb+5VZDGzNpUWn1HXrtvPYDjYm06uUWlz36tKye9c/QJnRWv6h3bner/4mq182HRP2Zs64jt/dTr8FEFDPcpm1OvtzSdTopG8lPYNOjO++8U1544YV60U2sG8Va0+985zt1/ENDohVrZK+77jp57LHH6kRtG1rTCjGM9atIPS4uLpYrr7xSPvroI+WXfvjDH0peXl7UaULRGhURCxhMwE1/ZHC3fWEaRathw5jIB8VwuweHO6dVR0TDRWetYhDpvRlZOfXOQ422mZN9h2D9gAhRHG33YC0i8TD68d9+I5f++h+hND176q62XwtT9BUbQCFleeWLf61ju37YPfc7P5FlM/+kjsiwRkpM3P3T745ZPzg52QkY68QipeRGE6JNEa36ARrRk1WrVqnNlz777DM577zz1MYm+fn5hnme+uYk0he5BSeSSLVmb2hxqT/fTdk92J4ejLqwvlX7IP1lnP7CzET/EcsxcNMXRdqxO5z9epdv+3tOhGhjRat1IyaIQ2xuhF2LDx48qDZquu++++qsIf3Tn/4kDz/8sNqAadCgQSETw4ly1Ad/Nnv2bMEu51gja/UpDe0ebPeF+/btk7vuukuwIR12OEZa8kMPPaQ2lsPGdeEuitZYfjpYV7wJuOmP4t2XZGuPotWwEU/kg2IyHHLf0HDbI83WstEeKvGg++XH7/Gc1jh+npw8ODl5GHVDtFqPvMGD4PDhw+Xee+9VOwpHOuoijugcNZVIX+TIwCYWwuccl94cKVo1Vr+AsvbNlaLd7+R9E/2HE7udlnHzIdHU9GD7kTdYDoDjtxDNHDlyZB3Bigis3m0c4tHqIyKJckREsSs5NnOyi0un6cHW8du1a5c88cQT8vTTT8uxY8dkxIgRMnPmTOnbt2+9YXbie53ODafl/OqPnPaf5WJHwE1/FDsrWVM4AhSths2LRDtmvz88uSFaTRX7fnfMTh6cEiVaGzoz0jCXE9GcRPsitzgh2jrrx9fKlb9/US0diHZZz3JFWfuu5tHuj/a+qf4jmt2Ned9NX2SqaHW6Izk44vgdZGFAMOI8Z+sVrn/I3EBEFLv+hjubtimiVbeJHYORdnzHHXeoI3c+/PBD6dChQx2bnPjexswPJ2X96o+c9J1lYkvATX8UW0tZm50ARathc4KO2bAB8bA5fnfMTh6cKFqbPoHpi5rOjnfWJeCmL/KDaMWa/Ndeey10Nms00QphifXxWIuKnX8HDhxYB3hzRKuuCOnK3//+92Xu3Lly0UUXUbTyQ+0bAm76I99AMrQjFK2GDQwfFA0bEA+b43fHTNHq7uSkL3KXbzLV7qYv8rpo3b9/v0ycOFFFWrGLr/WsVMyRSP1bv369ug/H5zz33HOSkZERmlKxEK1Yf6uP35k2bRpFazJ9YH3eVzf9kc/RJbx7FK0JH4K6BvBB0bAB8bA5fnfMFK3uTk76Inf5JlPtbvoir4tWvav4u+++q9an2q+GdiTHMoRf//rX8uqrr8oVV1zRaNFaWloqOTk59YQyIrm33367Oi8W58r279+fojWZPrA+76ub/sjn6BLePYrWhA8BRathQ+Abc/zumCla3Z2qFK3u8k2m2t30RV4WrfpsVhx3A9Eablfxhvp34MABmTx5sppK1rWnDR15g4gsjtZp06aNoNy8efOUWEY9aH/Lli1qbe2XX34ZdpdjtOXE98Z6ftMfxZpo8tbnpj9KXqrx6TlFa3w4O26FjtkxKhaMQsDvjtnJgxPXtDb9Y0Jf1HR2vLMuATd9kZdF67p165SAxE7D4TZUAsVo/cMOvzfddJPgiB1s/oTPbUNH3iCyunDhQhk2bJg6ggeRWtiBqCsuiNopU6ao43fsuxzrUXXie2P9GaA/ijXR5K3PTX+UvFTj03OK1vhwdtwKHbNjVCyY5KKVE8BdAvRF7vJNptr5kJhMo+1OX+mP3OGajLXSH3l31ClaDRs7OmbDBsTD5tAxe3jwDDCdvsiAQfCJCfRFPhnIBHaD/iiB8H3WNP2RdweUotWwsaNjNmxAPGwOHbOHB88A0+mLDBgEn5hAX+STgUxgN+iPEgjfZ03TH3l3QClaDRs7OmbDBsTD5tAxe3jwDDCdvsiAQfCJCfRFPhnIBHaD/iiB8H3WNP2RdweUotWwsaNjNmxAPGwOHbOHB88A0+mLDBgEn5hAX+STgUxgN+iPEgjfZ03TH3l3QClaDRs7OmbDBsTD5tAxe3jwDDCdvsiAQfCJCfRFPhnIBHbDVH+0Y8VC2bliUQLJeL/pbsPHSffh4+PWEfqjuKGOeUMUrTFH2rwKTXXMzesV704EgcY45vnz5ysTMf9i+W8s69K2sc7YjlEkrvRFifjU+rPNRPiiWPqJWNQVizrc8IGxsCsWdUTrm6n+aNFffy07ViyS7sPH+fPD63KvdqxcLN2HjZVx333I5ZZqq2+MPwoEAnGziw1FJ0DRGp1RXEuY6pjjCoGNxYRAYxzzhAkTVJvaQcfqX9YZ/B+eyTyt/1O22/l/VgfPbuRFAs0hkAhfZNrnzjR7GvrcN9ZfxatvJvojiFZc8RRdzfksmnbvov99FP+DjCu/xvgjilazZgxFq1njoSJdJjpmwzDRHAcE6JgdQGKRiAToizg5YkWAvihWJJO3HlP9EUVr8+YkRWvz+CXb3RStho24qY7ZMEw0xwEBPig6gMQiFK2cA64ToC9yHbHvGzD12YiitXlTj6K1efyS7W6KVsNG3FTHbBgmmuOAAB8UHUBiEYpWzgHXCdAXuY7Y9w2Y+mxE0dq8qUfR2jx+yXY3RathI26qYzYME81xQIAPig4gsQhFK+eA6wToi1xH7PsGTH02omht3tSjaG0ev2S7m6LVsBE31TEbhonmOCDAB0UHkFiEopVzwHUC9EWuI/Z9A6Y+GzVVtJYc3Cf/umWiHC/aVWfs8gq7yjefmS+57Ts1aUyLNqyWmbdOkbG3PyhjvvWjJtXR2JuW/PMPsvipx+TGf7wnhQOGNup2itZG4Ur6whSthk0BUx2zYZhojgMCfFB0AIlFKFo5B1wnQF/kOmLfN2Dqs1FzRWv3YeNk2iN/U+Onhaz1tcYOLEVrdGL0R9EZmVqCotWwkTHVMRuGieY4IEDH7AASi1C0cg64ToC+yHXEvm/A1GejWIrWirISefmeq9RYXv3kq5KZkytzHr5N1r71vHrNGoXVZXeuXKTeG3zJ9Ur8WkUrXkM0F1ek6C2ipB89+bAq023YONUuLm1HVqt82TL/rTpt431tV0ZWjvQcPVm2Lf2QkVbffwoT30GK1sSPQR0LTHXMhmGiOQ4I8EHRASQWoWjlHHCdAH2R64h934Cpz0axFK1acPY7f7oSoFsXzJVPn31SCcnD27eqtF/9HkRjcdEu9d6O5QvllR/MkBlPvCK57QtD6cGHvtoom96fHVFMon59X+GAs5XARZT3wgf/W4nWovUr1b24rCnH+r5J9zwiw665vU5Zpgf7/qOY0A5StCYUf/3GTXXMhmGiOQ4I8EHRASQWoWjlHHCdAH2R64h934Cpz0bNFa1O1rRao62InkIsQmAOm3F7vXWrWvhWnipTcwJCts+Ei8POD9S7Y+WiUBRWC+Hpv3lGZj9wixzbu129h0sLWohp+31c0+r7j58xHaRoNWYogoaY6pgNw0RzHBDgg6IDSCxC0co54DoB+iLXEfu+AVOfjZorWq3rV3XKr45wbv/0I5W6axWqKD/8ursibrZkF6065RepxtbLnl6s30MK8vV/fVvm/vJu9RIiuRWlJRStvv+EeaODFK2GjZOpjtkwTDTHAQE+KDqAxCIUrZwDrhOgL3Idse8bMPXZKJaiFYOoo5bX/Hm2LPzLI2GFo460htuwyZpi3K5XfyV6dbTVun4VQhiXNdKqJ5F9bW040WpNO2ak1fcfP2M6SNFqzFAEDTHVMRuGieY4IMAHRQeQWISilXPAdQL0Ra4j9n0Dpj4bxVK0arGo03IhOLWoxGZMOupqT9E9cbAoFHntMWpS6He9EVPrzj1CGztZJ0q0Na0oGy7SyjWtvv+4GdtBilbDhsZUx2wYJprjgAAfFB1AYhGKVs4B1wnQF7mO2PcNmPps1FzRal/Tit149Xmn1lRfvJ7duo20Pq1nnR1+G9o9GOe0WoVpuLWt0XYPDidaMdn0fdw92PcfPaM6SNFq1HAw0mrYcHjaHD4oenr4Em68qQ+JCQdDAxpNgL6o0ch4g42Aqf6oqaKVAxwksOh/HxUJBGTcdx+KGxL6o7ihjnlDFK0xR9q8Ck11zM3rFe9OBAE65kRQ90+b9EX+GctE94S+KNEj4P32TfVHTRGtNdXV8pvhed4flDA9eGDFcUlNS3PcN4pWx6hYEEsoA4FAgCTMIWCqYzaHEC1xSoAPik5JsVw4AvRFnBexIkBfFCuSyVuPqf6oKaI1eUexfs8pWjkbGkOAorUxtOJQ1lTHHIeus4kYE+CDYoyBJll19EVJNuAudpe+yEW4SVK1qf6IorV5E5CitXn8ku1uilbDRtxUx2wYJprjgAAfFB1AYpGIBOiLODliRYC+KFYkk7ceU/0RRWvz5iRFa/P4JdvdFK2GjbipjtkwTDTHAQE+KDqAxCIUrZwDE+NO5AAAIABJREFUrhOgL3Idse8bMPXZKFGi1brrr3XHYT0RrO/jtbzCrvLNZ+ZLbvtOobliL9Nt2LiwR+O4ObkoWt2k67+6KVoNG1NTHbNhmGiOAwJ8UHQAiUUoWjkHXCdAX+Q6Yt83YOqzUSJEqz4KZ/pvnpHCAWfLv26ZKNazWOc8fFvofFeIVPv5r3gNZTa9Pzt0vE64MvGYVBSt8aDsnzYoWg0bS1Mds2GYaI4DAnxQdACJRShaOQdcJ0Bf5Dpi3zdg6rNRIkSrPnt18CXXy7RH/lZn7KOdy4rCWvSOvf1BwVmu+or0upuTi6LVTbr+q5ui1bAxNdUxG4aJ5jggwAdFB5BYhKKVc8B1AvRFriP2fQOmPhslUrRi0O0pvfYoa7iJodOCZzzxivSZcHGoSMnBfSpq233YuHpi2K0JRtHqFll/1kvRati4muqYDcNEcxwQ4IOiA0gsQtHKOeA6Afoi1xH7vgFTn40SIVox2BCna996PjTuWoDaRat93SrKHfpqkyx+6rFQarCuRKcI4++rn3xVMnNyXZ9XFK2uI/ZVAxSthg2nqY7ZMEw0xwEBPig6gMQiFK2cA64ToC9yHbHvGzD12ShRohUDrlOB8bveaAlCNpwgtaYNQ7R+9OTDwkhrwx8b+K1AIOD7z5aXOkjRathomeqYDcNEcxwQ4IOiA0gsQtHKOeA6Afoi1xH7vgFTn40SKVr1oFs3VSo5WCSv/GBGPUFqFa257Qtl5q1ThGtaKVq95jgoWg0bMVMds2GYaI4DAnxQdACJRShaOQdcJ0Bf5Dpi3zdg6rNRIkSrfedfe0qw/X29wVLlqbKQmNXpxTraqtezYiLZj8Zxc3IxPdhNuv6rm6LVsDE11TEbhonmOCDAB0UHkFiEopVzwHUC9EWuI/Z9A6Y+GyVCtOq1pztXLlLj7uScVpSbdM8jdXYL5jmtjLR6zXFQtBo2YqY6ZsMw0RwHBPig6AASi1C0cg64ToC+yHXEvm/A1GejRIhWPw02I61+Gk33+0LR6j7jRrVgqmNuVCdY2AgCfFA0Yhg8awR9kWeHzjjD6YuMGxLPGWSqP4qnaN3w7qsy+4Fb4jJ2V/y/56Tf+dNdb4ui1XXEvmqAotWw4TTVMRuGieY4IMAHRQeQWISRVs4B1wnQF7mO2PcNmPpsFE/R6sdBpmj146i61yeKVvfYNqlmUx1zkzrDmxJKgA+KCcXv+cbpizw/hMZ0gL7ImKHwrCGm+iOK1uZNKYrW5vFLtrspWg0bcVMds2GYaI4DAnxQdACJRRhp5RxwnQB9keuIfd+Aqc9GFK3Nm3oUrc3jl2x3U7QaNuKmOmbDMNEcBwT4oOgAEotQtHIOuE6Avsh1xL5vwNRnI4rW5k09itbm8Uu2uylaDRtxUx2zYZhojgMCfFB0AIlFKFo5B1wnQF/kOmLfN2DqsxFFa/OmHkVr8/gl290UrYaNuKmO2TBMNMcBAT4oOoDEIhStnAOuE6Avch2x7xsw9dmIorV5U4+itXn8ku1uilbDRtxUx2wYJprjgAAfFB1AYhGKVs4B1wnQF7mO2PcNmPpsRNHavKlH0do8fsl2N0WrYSNuqmM2DBPNcUCAD4oOILEIRSvngOsE6ItcR+z7Bkx9NqJobd7Uo2htHr9ku5ui1bARN9UxG4aJ5jggwAdFB5BYhKKVc8B1AvRFriP2fQOmPhtBtO5YuVi6Dx/n+zFwo4M7ViyS7sPGyrjvPuRG9WHrpD+KG+qYN0TRGnOkzavQVMfcvF7x7kQQoGNOBHX/tElf5J+xTHRP6IsSPQLeb99Uf7RjxULZuWKR9wEnsAfdho+T7sPHx80C+qO4oY55QxStMUfavApNdczN6xXvTgQBp475yQmd5UTxsUSYyDYNJkBfZPDgeMw0+iKPDZiB5tIfGTgoHjWJ/sijAyciFK2GjR0ds2ED4mFznDhmlAkEAh7uJU13iwB9kVtkk69e+qLkG/NY95j+KNZEk7c++iPvjj1Fq2FjR8ds2IB42JxojpmC1cODGwfT6YviADlJmqAvSpKBdrGb9Ecuwk2yqumPvDvgFK2GjR0ds2ED4mFzGnLMFKweHtg4mU5fFCfQSdAMfVESDLLLXaQ/chlwElVPf+TdwaZoNWzs6JgNGxAPmxPJMVOwenhQ42g6fVEcYfu8Kfoinw9wHLpHfxQHyEnSBP2RdweaotWwsaNjNmxAPGxOOMdMwerhAY2z6fRFcQbu4+boi3w8uHHqGv1RnEAnQTP0R94dZIpWw8aOjtmwAfGwOXbHTMHq4cFMgOn0RQmA7tMm6Yt8OrBx7Bb9URxh+7wp+iPvDjBFq2FjR8ds2IB42ByrY6Zg9fBAJsh0+qIEgfdhs/RFPhzUOHeJ/ijOwH3cHP2RdweXotWwsaNjNmxAPGyOdswUrB4exASaTl+UQPg+a5q+yGcDmoDu0B8lALpPm6Q/8u7AUrQaNnZ0zIYNiIfNgWPGxXNYPTyICTSdviiB8H3WNH2RzwY0Ad2hP0oAdJ82SX/k3YGlaDVs7PJat5YTxcWGWUVzvEqAgtWrI5d4u+mLEj8GfrKAvshPoxn/vtAfxZ+5n1ukP/Lm6FK0enPcaDUJkAAJkAAJkAAJkAAJRCSwYMEC+fnPfy7z588nJRLwPAGKVs8PITtAAiRAAiRAAiRAAiRAAnUJLFy4UB5++GGBeOVFAl4nQNHq9RGk/SRAAiRAAiRAAiRAAiRgI7Bo0SJ56KGHBOKVFwl4nQBFq9dHkPaTAAmQAAmQAAmQAAmQAEUr54CPCVC0+nhw2TUSIAESIAESIAESIIHkJLB48WJ58MEHBRFXXiTgdQIUrV4fQdpPAiRAAiRAAiRAAiRAAjYCH3/8sdx///0C8cqLBLxOgKLV6yNI+0mABEiABEiABEiABEiAopVzwMcEKFp9PLjsGgmQAAmQAAmQAAmQQHIS+OSTT+S+++4TRFx5kYDXCVC0en0EaT8JkAAJkAAJkAAJkAAJ2AgsWbJEfvzjHwvEKy8S8DoBilavjyDtJwESIAESIAESIAESIAGKVs4BHxOgaPXx4LJrJEACJEACJEACJEACyUlg6dKl8sMf/lAQceVFAl4nQNHq9RGk/SRAAiRAAiRAAiRAAiRgI/Dpp5/KvffeKxCvvEjA6wQoWr0+grSfBEiABEiABEiABEiABChaOQd8TICi1ceDy66RAAmQAAmQAAmQAAkkJ4Fly5bJ97//fUHElRcJeJ0ARavXR5D2kwAJkAAJkAAJkAAJkICNwPLly+Xuu+8WiFdeJOB1AhStXh9B2k8CJEACJEACJEACJEACFK2cAz4mQNHq48Fl10iABEiABEiABEiABJKTwIoVK+TOO+8URFx5kYDXCVC0en0EaT8JkAAJkAAJkAAJkAAJ2AisXLlS7rjjDoF45UUCXidA0er1EaT9JEACJEACJEACJEACJEDRyjngYwIUrT4eXHaNBEiABEiABEiABEggOQmsWrVKbrvtNkHElRcJeJ0ARavXR5D2kwAJkAAJkAAJkAAJkICNwOrVq+XWW28ViFdeJOB1AhStXh9B2k8CJEACJEACJEACJEACFK2cAz4mQNHq48Fl10iABEiABEiABEiABJKTwGeffSbf+ta3BBFXXiTgdQIUrV4fQdpPAiRAAiRAAiRAAiRAAjYCa9askVtuuUUgXnmRgNcJULR6fQRpPwmQAAmQAAmQAAmQAAlQtHIO+JgARauPB5ddIwESIAESIAESIAESSE4Cn3/+udx0002CiCsvEvA6AYpWr48g7ScBEiABEiABEiABEiABG4G1a9fKDTfcIBCvvEjA6wQoWr0+grSfBEiABEiABEiABEiABChaOQd8TICi1ceDy66RAAmQAAmQAAmQAAkkJ4F169bJddddJ4i48iIBrxOgaPX6CNJ+EiABEiABEiABEiABErARWL9+vVxzzTUC8cqLBLxOgKLV6yNI+0mABEiABEiABEiABEiAopVzwMcEKFp9PLjsGgmQAAmQAAmQAAmQQHIS2LBhg8yYMUMQceVFAl4nQNHq9RGk/SRAAiRAAiRAAiRAAiRgI7Bx40a58sorBeKVFwl4nQBFq9dHkPaTAAmQAAmQAAmQAAmQAEUr54CPCVC0+nhw2TUSIAESIAESIAESIIHkJLBp0ya5/PLLBRFXXiTgdQIUrV4fQdpPAiRAAiRAAiRAAiRAAjYCmzdvlssuu+z/a+/eY/Uq63yBP5VUByg3ORU3itVpiAhpsGyMB6UFjogRqcMQiojEqgQyjiOZQ6IGJhiVHEAmIdjjbcAbl6hc5jCKNwiRSyE6x3aqEjkGvNCClKtyaUstSE+eNWft8+63+/butZ53r2etz/oHu/dav/U8n9/ak3znWZcQw6uNQO4CQmvuHTR+AgQIECBAgAABAkKra6DFAkJri5tragQIECBAgAABAt0UuO+++8KKFStCXHEdZLvpppvCu9/97vDd7363OL7cVq1aFa666qqdSi1evDiceuqp4SMf+UgYGRnZ6ffr1q0Ly5cvD1u3bh33u/nz54fDDjssnH322cVtzLvuuutOxz733HPhxhtvDJ/73OfC2rVrw4svvljsM905B5mvffMQEFrz6JNREiBAgAABAgQIEJixwP333x/e9a53hRheB9mmCq0xyF5yySVhn332KUr+7ne/Cz/60Y/CHXfcEXbZZZdw2WWXhQ9/+MNh3rx5Y6csQ+uJJ55YhNNyW79+fbj22mvDb3/723DmmWeGL3zhCyEG2XKLz+KedNJJxe3NMaTGID06Ohp+8YtfhNtuu62Y149//OPiZ7b2Cwit7e+xGRIgQIAAAQIECHRMIEVovf3228NPf/rTnVZUH3rooXDaaaeFu+++O1x33XXFp3bKrQytn/zkJ8MnPvGJcV14/vnnw/ve974i+K5ZsyYceuihxe9jvbe//e1h48aN4Vvf+lax4tsbhOM+27dvL0Ju/8871ubOTFdo7UyrTZQAAQIECBAgQKArAr/5zW/CO9/5zhDD6yDbVCutk4XW3qAZ/3fcb7/99itOO1Vojb//7Gc/Gz7zmc+EO++8c2zV9FOf+lT49Kc/Ha6++upw+umnDzJ8+7ZUQGhtaWNNiwABAgQIECBAoLsC8bbbd7zjHSGG10G22YbWeI7Pf/7z4aMf/Wj4zne+U9zOO11ojSutp5xyShGs462+r3jFK8ITTzwRjjrqqLDbbruFW265ZexW5EHmYN/2CQit7eupGREgQIAAAQIECHRcYC5C61133RWOOeaYYpX0vPPOGxda+59pfeyxx8IXv/jFsG3btnDDDTeEN77xjeP2P+OMM8Lq1as73kXTLwWEVtcCAQIECBAgQIAAgZYJxJckxedCY3gdZKuy0lreCnzyySeHK6+8clwI7X97cPzlwQcfHM4999ziGdjy7cE//OEPw/HHHx8uvvjinZ6BHWQe9m2XgNDarn6aDQECBAgQIECAAIHw+9//PrztbW8r3vA7yJYqtPa/iCmusMa3EcdP5ey///7h+9//fnj1q18dhNZButWdfYXW7vTaTAkQIECAAAECBDoiMBeh9dZbbw3HHXdcuOiii8ZWSad7EdO3v/3t8N73vndsZbXc3+3BHblQZzhNoXWGUHYjQIAAAQIECBAgkIvAAw88UDxfGsPrIFuVldb41t/4JuD4AqVjjz22OO10obX/luJHH300vOUtbwkLFy4MN998c9hrr70GGb59WyogtLa0saZFgAABAgQIECDQXYENGzYUb+GN4XWQbbahNb6lePny5WO3+O67774zCq0/+9nPinHG77x+5StfCTt27CjeQBxf0hS/0fqe97xnkOHbt6UCQmtLG2taBAgQIECAAAEC3RUYZmj95S9/WYTL++67L9x4441jn7uZbqU1fvImPtN6xRVXFAH11FNPLRr2q1/9Khx99NHhhRdeCPH24XjL8bx587rbTDMPQquLgAABAgQIECBAgEDLBDZu3BiWLVsWYngdZJtqpTW+OOmSSy4Z+3bqPffcU7xM6ec//3nxXdUYPFesWDEuYJa3//Z/8ia+IOqqq64qAurKlSvD1772tbBgwYKxocbvtsYgHL/bGj+HE7/7umTJkuLFUrFmfCtyHOvIyMgg07NvpgJCa6aNM2wCBAgQIECAAAECkwk8+OCD4a1vfWuI4XWQbarQGkNm7/aSl7wkHHLIIWHVqlXhzDPPDHvuuedOpypD60SfvInHfvzjHy9Ca/nJm94CTz75ZPGt1vj5nN7wvXjx4vD+978/fOxjH5vwuEHma988BITWPPpklAQIECBAgAABAgRmLFB3aJ3xie1IIIGA0JoAVUkCBAgQIECAAAECcynw0EMPhSOOOCLE8DrTLb4EKX5P9dJLLw133nlnGB0dnemh9iOQVEBoTcqrOAECBAgQIECAAIHhC/zhD38Ib37zm0MMr1Nt27ZtC1/60peKZ1LvvvvucPXVV4cTTjghXHfddW69HX7bnHESAaHVpUGAAAECBAgQIECgZQIzDa1btmwpPjcTX6g0f/788KEPfShceOGF4eUvf3nLREwnZwGhNefuGTsBAgQIECBAgACBCQQefvjh8KY3vSnE8GojkLuA0Jp7B42fAAECBAgQIECAQJ/Apk2bimdSY3i1EchdQGjNvYPGT4AAAQIECBAgQEBodQ20WEBobXFzTY0AAQIECBAgQKCbAo888khYunRpiCuuNgK5CwituXfQ+AkQIECAAAECBAj0CTz66KPh0EMPDTG82gjkLiC05t5B4ydAgAABAgQIECAgtLoGWiwgtLa4uaZGgAABAgQIECDQTYHHHnssLFmyJMQVVxuB3AWE1tw7aPwECBAgQIAAAQIE+gQef/zxcMghh4QYXm0EchcQWnPvoPETIECAAAECBAgQ6BN44oknwhve8IYQw6uNQO4CQmvuHTR+AgQIECBAgAABAkKra6DFAkJri5tragQIECBAgAABAt0UePLJJ8PrX//6EFdcbQRyFxBac++g8RMgQIAAAQIECBDoE/jjH/8YDjzwwBDDq41A7gJCa+4dNH4CBAgQIECAAAECQqtroMUCQmuLm2tqBAgQIECAAAEC3RT405/+FBYvXhziiquNQO4CQmvuHTR+AgQIECBAgAABAn0CTz31VHjd614XYni1EchdQGjNvYPGT4AAAQIECBAgQEBodQ20WEBobXFzTY0AAQIECBAgQKCbAk8//XRYtGhRiCuuNgK5CwituXfQ+AkQIECAAAECBAj0CTzzzDPhgAMOCDG82gjkLiC05t5B4ydAgAABAgQIECAgtLoGWiwgtLa4uaZGgAABAgQIECDQTYFnn302vOpVrwpxxdVGIHcBoTX3Dho/AQIECBAgQIAAgT6BzZs3h5GRkRDDq41A7gJCa+4dNH4CBAgQIECAAAECQqtroMUCQmuLm2tqBAgQIECAAAEC3RTYsmVL2G+//UJccbURyF1AaM29g8ZPgAABAgQIECBAoE9g69atYeHChSGGVxuB3AWE1tw7aPwECBAgQIAAAQIEhFbXQIsFhNYWN9fUCBAgQIAAAQIEuinw3HPPhX333TfEFVcbgdwFhNbcO2j8BAgQIECAAAECBPoEtm3bFvbZZ58Qw6uNQO4CQmvuHTR+AgQIECBAgAABAkKra6DFAkJri5tragQIECBAgAABAt0U+POf/xz22muvEFdcbQRyFxBac++g8RMgQIAAAQIECBDoE9i+fXvYY489QgyvNgK5CwituXfQ+AkQIECAAAECBAgIra6BFgsIrS1urqkRIECAAAECBAh0U+D5558Pu+++e4grrjYCuQsIrbl30PgJECBAgAABAgQI9Am88MILYddddw0xvNoI5C4gtObeQeMnQIAAAQIECBAgILS6BlosILS2uLmmRoAAAQIECBAg0E2Bv/zlL+FlL3tZiCuuNgK5CwituXfQ+AkQIECAAAECBAj0Cbz44oth/vz5IYZXG4HcBYTW3Dto/AQIECBAgAABAgSEVtdAiwWE1hY319QIECBAgAABAgS6KbBjx46wyy67hLjiaiOQu4DQmnsHjZ8AAQIECBAgQIDABALz5s0LMbzaCOQuILTm3kHjJ0CAAAECBAgQCHvstXfY/MzTJAhUFogr1F5gVZmx1gJCa62cihEgQIAAAQIECAxbIK4onrd+y7BP63wtFLhw6e7FrKxQN6u5Qmuz+mE0BAgQIECAAAECAwgIrANg2XVKgRhY4//zI/5XaG3WxSK0NqsfRkOAAAECBAgQIDBDAYF1hlB2m1agDKxxR6F1Wq6h7yC0Dp3cCQkQIECAAAECBKoKCKxVBR1fCvQGVqG1mdeF0NrMvhgVAQIECBAgQIDAJAICq0ujLoH+wCq01iVbbx2htV5P1QgQIECAAAECBBIKCKwJcTtWeqLAKrQ28yIQWpvZF6MiQIAAAQIECBDoExBYXRJ1CUwWWIXWuoTrrSO01uupGgECBAgQIECAQAIBgTUBakdLThVYhdZmXhRCazP7YlQECBAgQIAAAQL/T0BgdSnUJTBdYBVa65Kut47QWq+nagQIECBAgAABAjUKxMBqI1CXQPwO63SbT95MJzT83wutwzd3RgIECBAgQIAAgRkKWGWdIZTdphWYySprLCK0Tks59B2E1qGTOyEBAgQIECBAgMBMBYTWmUrZbzoBoXU6oeb+Xmhtbm+MjAABAgQIECDQeQGhtfOXQG0AQmttlEMvJLQOndwJCRAgQIAAAQIEZiqQe2j9ydcvDbetPj+8ZnRZOGX1DeGluy0I99/xg3D9P64MKy+7Phx41PFh8+OPhG+sOjo8s+nBnX62aHRZWHHBFQVXWSv+7/l/tVs4/au3hJGDl+5EedP5Z4Z7vvfNnX5enm/TvevDNWccF57ftnXcPuXvyx9u37o5XHf2yWHjujXFj3rnMNP+NWk/obVJ3RhsLELrYF72JkCAAAECBAgQGKJAzqG1N/T1hswyNB551rnhiA+eE3pD5JITTitC6mT7nHjxlWHk4MOKkLv3/q8dC8K9LYmhdcO6NeEDV94eFix8ZfGr3p89+/imIrSW5+8NxL3BNYbkdddfXtTZdO9/FEH7mLMvKMac4ya05ti1/xyz0Jpv74ycAAECBAgQINB6gZxDaxk8X/df/1v4/U9/PBYSy5XVMnSuu/byYjU2buVqZvzZXZdfNLaaWq7OlqF2qsZPFFpjAC3rxWP7Q2sZsOPvyhXhcsW2fwU214tOaM21c0Jrvp0zcgIECBAgQIBABwRyDq1lUDzlf/5rWPPlC4tu9QbCuBp62pe/F37wmX8ofnfA0iPC/77m80VQXfutL45bLS1Da2+wjbcaT7TNZqU11uk/rvc245xXWEsjoTXf/4NhpTXf3hk5AQIECBAgQKD1ArmG1v6Vy/6V0zLQxtt9b/7sOWF05Vnhv/z1QcUtuH9z4dfC+n/9+riQW4bK3mdVJ1sBneiZ1j1HDhi7Xbj/1uPyIuoPrb3P2sZ9emvkeOEJrTl27T/HLLTm2zsjJ0CAAAECBAi0XiDX0DrZM6nlc6S9t/vGIBoDaO+zqk89/EARZPufH+1dcZ0sRPaGz/JZ1N6XKM00tPaG2TIsz+T25KZelEJrUzsz/biE1umN7EGAAAECBAgQIDBHArmG1sne4FsGzchZvjG4/NlLd18w7m29Uz1LGuv/+tZ/m/ANwpPd5lve4jtRaJ3omdbelvc/hzvZrclzdJnM6LRC64yYGrmT0NrIthgUAQIECBAgQIBAFMgxtE4W8MpP1sQwuuhNy8cCau8qaLlP/ydt+kPqRM+t9q6M9r49uAypu+6zb3GL8ERvD57sMzzly6K2b9lchOzeT/DkdoUKrbl17P+PV2jNt3dGToAAAQIECBBovUCOobUMgP0vLyrD40HHnlh81qZcje3dr9xn5JDRcZ+z6f9m6nTfae3/5E0ZhuPtvYe/9+9n9J3W/u+5+k5r6//cGjtBobWxrTEwAgQIECBAgACBHEOrrjVTwEprM/syk1EJrTNRsg8BAgQIECBAgMCcCAitc8LeypMKrfm2VWjNt3dGToAAAQIECBBovYDQ2voWD22CQuvQqGs/kdBaO6mCBAgQIECAAAECdQkIrXVJqiO05nsNCK359s7ICRAgQIAAAQKtFxBaW9/ioU1QaB0ade0nElprJ1WQAAECBAgQIECgLgGhtS5JdYTWfK8BoTXf3hk5AQIECBAgQKD1AkJr61s8tAkKrUOjrv1EQmvtpAoSIECAAAECBAjUJSC01iWpjtCa7zUgtObbOyMnQIAAAQIECLReQGhtfYuHNkGhdWjUtZ9IaK2dVEECBAgQIECAAIG6BITWuiTVEVrzvQaE1nx7Z+QECBAgQIAAgdYLCK2tb/HQJii0Do269hMJrbWTKkiAAAECBAgQIFCXgNBal6Q6Qmu+14DQmm/vjJwAAQIECBAg0HoBobX1LR7aBIXWoVHXfiKhtXZSBQkQIECAAAECBOoSEFrrklRHaM33GhBa8+2dkRMgQIAAAQIEWi8gtLa+xUOboNA6NOraTyS01k6qIAECBAgQIECAQF0CQmtdkuoIrfleA0Jrvr0zcgIECBAgQIBA6wWE1ta3eGgTFFqHRl37iYTW2kkVJECAAAECBAgQqEtAaK1LUh2hNd9rQGjNt3dGToAAAQIECBBovYDQ2voWD22CQuvQqGs/kdBaO6mCBAgQIECAAAECdQkIrXVJqiO05nsNCK359s7ICRAgQIAAAQKtFxBaW9/ioU1QaB0ade0nElprJ1WQAAECBAgQIECgLgGhtS5JdYTWfK8BoTXf3hk5AQIECBAgQKD1AkJr61s8tAkKrUOjrv1EQmvtpAoSIECAAAECBAjUJSC01iWpjtCa7zUgtObbOyMnQIAAAQIECLReQGhtfYuHNkGhdWjUtZ9IaK2dVEECBAjEdF6tAAASkklEQVQQIECAAIG6BITWuiTVEVrzvQaE1nx7Z+QECBAgQIAAgdYLNDW0blh7Z9i4dk3r/VNO8DWHLwuLDl+e8hTjagutQ6Ou/URCa+2kChIgQIAAAQIECNQl0NTQuubL/yNsWLsmLDp8WV1T7VSdDevuCotGjwzL/u6fhjZvoXVo1LWfSGitnVRBAgQIECBAgACBugSaHFrjHIcZuuoybUKdNf9yYQg7dgzVT2htQudnNwahdXZujiJAgAABAgQIEBiCgNA6BOQ5OIXQOgfoGZ9SaM24eYZOgAABAgQIEGi7gNDazg4Lre3sa6pZCa2pZNUlQIAAAQIECBCoLCC0ViZsZAGhtZFtaeyghNbGtsbACBAgQIAAAQIEhNZ2XgNCazv7mmpWQmsqWXUJECBAgAABAgQqC+QYWm86/8xwz/e+OW7urxldFk5ZfUN46W4LZm2yfevmcPNF/z0cc/YFYcHCV866zmQH3n/HD8L1/7hy7NcrL7s+HHjU8WP//snXLw23rT5/7N/9c4rz3rBuTfjAlbdPOz6htfb2tbqg0Nrq9pocAQIECBAgQCBvgVxDa294K8NgDJtHfPCcWTdkkFA46Ek2P/5I+Maqo8PoyrPC6HvOCtedfXJ46uEHxgJoPPevb/23cPpXbwkjBy8NMUDHfeJWhvFBxie0Dtqhbu8vtHa7/2ZPgAABAgQIEGi0QBtC62QBr1yNnWjFsv936669fGyVc/5f7VaEx7hdc8Zx4fltW0OsEUPmotFlYcUFV4QyKC854bRi1Tf+N4bmGEyf2fRgcWzvSuqme9cXtUYOGd1pRbj83ZFnnTsudPf/XGht9J9S1oMTWrNun8ETIECAAAECBNot0MbQGm/xLVdiY/dikOwPmzFQLlg4UgTJMiz2hsKX7r5g3Gropnv/o7i1N4bT/tAa/90fnGMIvuvyi8ZWTssAGgPwniMHjLvFt7wtuP924XJ1thy70Nruv8W5nJ3QOpf6zk2AAAECBAgQIDClQBtCa+/twTFU9obUOPkYCssAufnxTWPPlfaHxN5Q+Ozjm4pAe9CxJxYhtT9Alucsa/Svipb/PvHiK8eeW+1/ZrW8nbl3fPHW4HLrD8K9YXy6Z27dHuwPfxABoXUQLfsSIECAAAECBAgMVSDX0Nr/IqZyBXSiW217Q+G+rz2wWEHduG7NmHMZPCcKreUq7HShtf8lS2Xx/udse1dcy9uQH/j324pbkydbad17/9cWtxQLrUP90+jUyYTWTrXbZAkQIECAAAECeQnkGlone4tuf7jsX2ntXcksVz7L23VjcCzrVl1pne4q6L0luP825fi7J373f8JBx/7tuFuS3R48narfz1ZAaJ2tnOMIECBAgAABAgSSC7QttEaw3nAX/917u/BEq65xn/6VzP5nWuPKbgy1/c+0lquj0z3T2v/cav8twb1vD95j4cjYC53K1dgYtoXW5H8OnT2B0NrZ1ps4AQIECBAgQKD5Am0MrWVwLW8hLoNm2Y3e77z2hsLeW3x7X9Q01duDe2/pLVd5J3p7cP+Y4r+n+05r3Kc/tPbfFt37+96rzTOtzf/ba9IIhdYmdcNYCBAgQIAAAQIExgnkGFqH0cL+ldMnH7h/3JuGhzGGeI4YpP/96tU7fSZnuvMLrdMJ+X2vgNDqeiBAgAABAgQIEGisQG6h9YZzTg333XZTcs/z1m8Z+xZrebLe771euHT35GOY6Qnis68n/fM143YXWmeqZ78oILS6DggQIECAAAECBBorkFtobSxkwwYmtDasIQ0fjtDa8AYZHgECBAgQIECgywJCazu7L7S2s6+pZiW0ppJVlwABAgQIECBAoLKA0FqZsJEFhNZGtqWxgxJaG9saAyNAgAABAgQIEBBaJ78Get8y3LtX+dbf/rcFl/scc/YF4YgPnjOnF5fQOqf82Z1caM2uZQZMgAABAgQIEOiOgNA6dWjdsG5N+MCVt4cFC19Z7DjVN2Dj78vP5sx1cBVau/M3XMdMhdY6FNUgQIAAAQIECBBIIiC0DhZaf/L1S8Ndl18UTv/qLWGPhSPhG6uODotGl4UVF1wxVqg32JZhN0nzpigqtA5bPO/zCa1598/oCRAgQIAAAQKtFhBaZx5ay2+3PvXwA8Xqa9wmCq29wXbk4KVzcv0IrXPCnu1JhdZsW2fgBAgQIECAAIH2CwitU4fWe773zZ126H+mtX+lVWid+u8mfuN2x44d7f/jymiGQmtGzTJUAgQIECBAgEDXBITWma+0xj1jIL1t9fkhPrO65ITTrLT28MUwet76LdP+CQmt0xINfQehdejkTkiAAAECBAgQIDBTAaF1sNC66d714ZozjgtHnnXupKHVM61WWmf699eU/YTWpnTCOAgQIECAAAECBHYSEFoHC63lSmu8RXjk4MN2WmntDbVz+dkbz7T6Yx9EQGgdRMu+BAgQIECAAAECQxUQWqcOrRM901p+zsZ3WsfbuT14qH+6tZ5MaK2VUzECBAgQIECAAIE6BYTWOjWbU8tKa3N6kcNIhNYcumSMBAgQIECAAIGOCgitEzf+f33s9PDrW2+sdFUcdOzfhpP++ZpKNWZ7sNA6W7luHie0drPvZk2AAAECBAgQyEJAaM2iTQMPUmgdmKzTBwitnW6/yRMgQIAAAQIEmi0gtDa7P7MdndA6W7luHie0drPvZk2AAAECBAgQyEJAaM2iTQMPUmgdmKzTBwitnW6/yRMgQIAAAQIEmi0gtDa7P7MdndA6W7luHie0drPvZk2AAAECBAgQyEJAaM2iTQMPUmgdmKzTBwitnW6/yRMgQIAAAQIEmi0gtDa7P7MdndA6W7luHie0drPvZk2AAAECBAgQyEJAaM2iTQMPUmgdmKzTBwitnW6/yRMgQIAAAQIEmi0gtDa7P7MdndA6W7luHie0drPvZk2AAAECBAgQyEKgyaF1w7q7wqLDl2Xh2LRBbli7JiwaPTIs+7t/GtrQLly6ezhv/ZZpzxf327Fjx7T72WF4AkLr8KydiQABAgQIECBAYECBpobWDWvvDBvXrhlwNnbvFXjN4cvCosOXDw1FaB0ade0nElprJ1WQAAECBAgQIECgLoGmhta65qfO8ARmGlpXH7V/ePbpp4Y3MGeaVkBonZbIDgQIECBAgAABAnMlILTOlXz7zjuT0OrW4Gb2XWhtZl+MigABAgQIECBAIIQgtLoM6hKYLrQKrHVJ119HaK3fVEUCBAgQIECAAIGaBITWmiCVCVOFVoG12ReI0Nrs/hgdAQIECBAgQKDTAkJrp9tf6+QnC60Ca63MSYoJrUlYFSVAgAABAgQIEKhDQGitQ1GNKDBRaBVY87g2hNY8+mSUBAgQIECAAIFOCgitnWx7kkn3h1aBNQlzkqJCaxJWRQkQIECAAAECBOoQEFrrUFSjf6VVYM3rmhBa8+qX0RIgQIAAAQIEOiUgtHaq3UknW660CqxJmZMUF1qTsCpKgAABAgQIECBQh4DQWoeiGuVKa/zvjh07gGQmILRm1jDDJUCAAAECBAh0SWDPvfcOzz79dJembK4JBQTWhLgJSwutCXGVJkCAAAECBAgQIECAAIFqAkJrNT9HEyBAgAABAgQIECBAgEBCAaE1Ia7SBAgQIECAAAECBAgQIFBNQGit5udoAgQIECBAgAABAgQIEEgoILQmxFWaAAECBAgQIECAAAECBKoJCK3V/BxNgAABAgQIECBAgAABAgkFhNaEuEoTIECAAAECBAgQIECAQDUBobWan6MJECBAgAABAgQIECBAIKGA0JoQV2kCBAgQIECAAAECBAgQqCYgtFbzczQBAgQIECBAgAABAgQIJBQQWhPiKk2AAAECBAgQIECAAAEC1QSE1mp+jiZAgAABAgQIECBAgACBhAJCa0JcpQkQIECAAAECBAgQIECgmoDQWs3P0QQIECBAgAABAgQIECCQUEBoTYirNAECBAgQIECAAAECBAhUExBaq/k5mgABAgQIECBAgAABAgQSCgitCXGVJkCAAAECBAgQIECAAIFqAkJrNT9HEyBAgAABAgQIECBAgEBCAaE1Ia7SBAgQIECAAAECBAgQIFBNQGit5udoAgQIECBAgAABAgQIEEgoILQmxFWaAAECBAgQIECAAAECBKoJCK3V/BxNgAABAgQIECBAgAABAgkFhNaEuEoTIECAAAECBAgQIECAQDUBobWan6MJECBAgAABAgQIECBAIKGA0JoQV2kCBAgQIECAAAECBAgQqCYgtFbzczQBAgQIECBAgAABAgQIJBQQWhPiKk2AAAECBAgQIECAAAEC1QSE1mp+jiZAgAABAgQIECBAgACBhAJCa0JcpQkQIECAAAECBAgQIECgmoDQWs3P0QQIECBAgAABAgQIECCQUEBoTYirNAECBAgQIECAAAECBAhUExBaq/k5mgABAgQIECBAgAABAgQSCgitCXGVJkCAAAECBAgQIECAAIFqAkJrNT9HEyBAgAABAgQIECBAgEBCAaE1Ia7SBAgQIECAAAECBAgQIFBNQGit5udoAgQIECBAgAABAgQIEEgoILQmxFWaAAECBAgQIECAAAECBKoJCK3V/BxNgAABAgQIECBAgAABAgkFhNaEuEoTIECAAAECBAgQIECAQDUBobWan6MJECBAgAABAgQIECBAIKGA0JoQV2kCBAgQIECAAAECBAgQqCYgtFbzczQBAgQIECBAgAABAgQIJBQQWhPiKk2AAAECBAgQIECAAAEC1QSE1mp+jiZAgAABAgQIECBAgACBhAJCa0JcpQkQIECAAAECBAgQIECgmoDQWs3P0QQIECBAgAABAgQIECCQUEBoTYirNAECBAgQIECAAAECBAhUExBaq/k5mgABAgQIECBAgAABAgQSCgitCXGVJkCAAAECBAgQIECAAIFqAkJrNT9HEyBAgAABAgQIECBAgEBCAaE1Ia7SBAgQIECAAAECBAgQIFBNQGit5udoAgQIECBAgAABAgQIEEgoILQmxFWaAAECBAgQIECAAAECBKoJCK3V/BxNgAABAgQIECBAgAABAgkFhNaEuEoTIECAAAECBAgQIECAQDUBobWan6MJECBAgAABAgQIECBAIKGA0JoQV2kCBAgQIECAAAECBAgQqCYgtFbzczQBAgQIECBAgAABAgQIJBQQWhPiKk2AAAECBAgQIECAAAEC1QSE1mp+jiZAgAABAgQIECBAgACBhAJCa0JcpQkQIECAAAECBAgQIECgmoDQWs3P0QQIECBAgAABAgQIECCQUEBoTYirNAECBAgQIECAAAECBAhUExBaq/k5mgABAgQIECBAgAABAgQSCgitCXGVJkCAAAECBAgQIECAAIFqAkJrNT9HEyBAgAABAgQIECBAgEBCAaE1Ia7SBAgQIECAAAECBAgQIFBNQGit5udoAgQIECBAgAABAgQIEEgoILQmxFWaAAECBAgQIECAAAECBKoJCK3V/BxNgAABAgQIECBAgAABAgkFhNaEuEoTIECAAAECBAgQIECAQDUBobWan6MJECBAgAABAgQIECBAIKGA0JoQV2kCBAgQIECAAAECBAgQqCYgtFbzczQBAgQIECBAgAABAgQIJBQQWhPiKk2AAAECBAgQIECAAAEC1QSE1mp+jiZAgAABAgQIECBAgACBhAJCa0JcpQkQIECAAAECBAgQIECgmoDQWs3P0QQIECBAgAABAgQIECCQUEBoTYirNAECBAgQIECAAAECBAhUExBaq/k5mgABAgQIECBAgAABAgQSCgitCXGVJkCAAAECBAgQIECAAIFqAkJrNT9HEyBAgAABAgQIECBAgEBCAaE1Ia7SBAgQIECAAAECBAgQIFBNQGit5udoAgQIECBAgAABAgQIEEgoILQmxFWaAAECBAgQIECAAAECBKoJCK3V/BxNgAABAgQIECBAgAABAgkFhNaEuEoTIECAAAECBAgQIECAQDUBobWan6MJECBAgAABAgQIECBAIKGA0JoQV2kCBAgQIECAAAECBAgQqCYgtFbzczQBAgQIECBAgAABAgQIJBQQWhPiKk2AAAECBAgQIECAAAEC1QSE1mp+jiZAgAABAgQIECBAgACBhAJCa0JcpQkQIECAAAECBAgQIECgmoDQWs3P0QQIECBAgAABAgQIECCQUEBoTYirNAECBAgQIECAAAECBAhUExBaq/k5mgABAgQIECBAgAABAgQSCgitCXGVJkCAAAECBAgQIECAAIFqAkJrNT9HEyBAgAABAgQIECBAgEBCAaE1Ia7SBAgQIECAAAECBAgQIFBNQGit5udoAgQIECBAgAABAgQIEEgo8H8B17HPOGOQuvEAAAAASUVORK5CYII=;" vertex="1" parent="1">
          <mxGeometry x="-110" y="100" width="941" height="498" as="geometry" />
        </mxCell>
      </root>
    </mxGraphModel>
  </diagram>
</mxfile>
